<?xml version="1.0" encoding="utf-8"?>
<!-- Generator: Adobe Illustrator 28.2.0, SVG Export Plug-In . SVG Version: 6.00 Build 0)  -->
<svg version="1.1" id="Capa_1" xmlns="http://www.w3.org/2000/svg" xmlns:xlink="http://www.w3.org/1999/xlink" x="0px" y="0px"
	 viewBox="0 0 250 250" style="enable-background:new 0 0 250 250;" xml:space="preserve">
<style type="text/css">
	.st0{fill:#334022;}
	.st1{clip-path:url(#SVGID_00000139287017470250081370000008052165021397583251_);}
	.st2{fill:#FDE8D6;}
	.st3{fill:#FF555C;}
	.st4{fill:#42894E;}
</style>
<g>
	<circle class="st0" cx="125" cy="125" r="122.5"/>
	<g>
		<defs>
			<circle id="SVGID_1_" cx="125" cy="125" r="122.5"/>
		</defs>
		<clipPath id="SVGID_00000044177306174266845430000000586487695173464496_">
			<use xlink:href="#SVGID_1_"  style="overflow:visible;"/>
		</clipPath>
		<g style="clip-path:url(#SVGID_00000044177306174266845430000000586487695173464496_);">
			<path class="st2" d="M73.64,201.2c1.79,0.99,3.72,1.79,5.33,3.01c3.85,2.93,8.05,4.67,12.93,4.66
				c19.44-0.01,38.88,0.04,58.32-0.03c11.49-0.05,20.21-8.9,20.3-20.61c0.1-12.06-0.37-24.13,0.13-36.17
				c0.47-11.42-0.83-22.22-5.96-32.61c-2.49-5.03-3.92-10.59-5.7-15.95c-1.24-3.74-1.21-7.56-0.23-11.39
				c1.44-5.57,5.3-8.6,10.71-10.47c1.98,4.63,3.99,9.09,5.81,13.64c7.04,17.64,14.08,35.29,20.98,52.99
				c1.42,3.65,2.25,7.53,3.36,11.3c2.61,8.85,2.34,17.59,0.41,26.67c-4.47,21.06-6.63,42.42-6.24,63.98
				c0.11,6.06,0.31,12.12,0.46,18.19c0.03,1.05,0,2.1,0,3.33c-27.63,0-55.06,0-82.68,0c-1.14-7.12-2.23-14.22-3.47-21.3
				c-0.22-1.27-0.85-2.64-1.7-3.61c-11.74-13.3-22.86-27.06-31.92-42.37c-0.49-0.83-0.94-1.69-1.41-2.54
				C73.26,201.69,73.45,201.44,73.64,201.2z"/>
			<path class="st2" d="M62.93,113.11c3.18,0.06,5.94,1.17,8.1,3.51c3.61,3.91,7.19,7.84,10.69,11.84
				c2.51,2.87,4.03,6.19,3.38,10.13c-0.64,3.92-3.33,6.17-7.32,6.21c-3.34,0.03-6.26-1.18-8.73-3.36c-4.04-3.58-8.06-7.19-12-10.88
				c-3.38-3.17-4.39-7.7-2.79-11.67C55.66,115.43,59.07,113.15,62.93,113.11z"/>
			<path class="st2" d="M77.67,171.8c-2.52-1.23-5.33-2.09-7.49-3.77c-3.99-3.11-7.69-6.63-11.36-10.14
				c-4.04-3.86-4.54-9.79-1.39-13.56c1.27-1.52,2.31-1.96,3.91-0.25c4.47,4.76,9.78,7.91,16.54,8.03c0.38,0.01,0.86,0.12,1.12,0.37
				c3.15,3.06,6.05,6.27,6.36,10.98c0.32,4.78-2.54,7.76-7.39,7.72C77.87,171.39,77.77,171.6,77.67,171.8z"/>
			<path class="st2" d="M59.55,168.36c1.72,1.54,2.89,2.54,4.02,3.6c4.37,4.12,9.5,6.51,15.52,7.02c0.75,0.06,1.63,0.43,2.14,0.96
				c3.08,3.18,4.7,6.97,3.47,11.38c-0.64,2.29-2.76,3.29-5.08,3.48c-4.05,0.33-7.26-1.77-10.17-4.1c-2.98-2.39-5.69-5.16-8.33-7.94
				c-2.32-2.44-4.53-5.14-3.8-8.84C57.67,172.12,58.69,170.45,59.55,168.36z"/>
			<path class="st2" d="M92.04,102.12c-1.11-0.78-2.36-1.21-2.5-1.87c-0.24-1.14-0.18-2.68,0.42-3.61
				c3.44-5.29,7.09-10.44,10.67-15.64c6.46-9.38,12.89-18.79,19.45-28.1c0.69-0.98,2.17-1.93,3.3-1.94c2.29-0.03,3.05,2.58,1.5,4.86
				c-4.37,6.44-8.79,12.85-13.2,19.27c-5.57,8.1-11.13,16.22-16.76,24.28C94.22,100.35,93.15,101.08,92.04,102.12z"/>
			<path class="st2" d="M71.61,107.01c-4.33-2.06-8.36-3.69-12.09-5.83c-4.85-2.79-6.9-8.21-5.1-12.27c1.8-4.06,7.17-6.13,12.49-4.8
				c4.65,1.16,4.67,1.16,4.7,5.91C71.63,95.49,71.61,100.98,71.61,107.01z"/>
			<path class="st2" d="M92.8,80.09c-1.06-0.8-2.24-1.23-2.44-1.94c-0.28-1.04-0.22-2.51,0.34-3.39c2.45-3.87,5.13-7.6,7.73-11.37
				c2.46-3.58,4.93-7.14,7.37-10.74c1.1-1.62,2.44-2.49,4.33-1.4c1.6,0.93,1.72,2.68,0.35,4.7c-4.95,7.23-9.9,14.46-14.91,21.64
				C94.92,78.52,93.86,79.15,92.8,80.09z"/>
			<path class="st2" d="M159.14,125.33c-0.83-1.59-1.29-3.36-1.95-5.04c-0.21-0.53-0.52-1.01-0.79-1.52c0,0-7.61-19.79-0.38-37.35
				c2.27-1.66,4.13-2.86,5.79-4.29c0.69-0.59,1.36-1.65,1.36-2.5c0.09-11.57,0.14-23.13,0.03-34.7
				c-0.08-8.25-5.47-13.35-13.74-13.35c-18.78,0.01-37.57,0.25-56.35-0.1c-8.17-0.15-14.36,5.78-14.3,14.22
				c0.18,24.03,0.07,48.07,0.09,72.1c0,0.71-0.02,1.62,0.38,2.1c2.03,2.42,4.19,4.73,6.71,7.53c0,0,9.11,8.94,2.09,20.55
				c0,0-1.57,2.88-5.89,6c0,0,8.51,2.86,8.55,18.36c0,0-0.99,4.49-2.4,7.3c-0.24,0.34-0.47,0.71-0.68,1.16
				c-0.27,0.39,0.09,0.7,0.9,0.97c2.83,3.18,4.47,7.01,4.45,11.59c-0.02,5.05-1.54,9.25-6.73,12.44c2.48,0.36,4.27,0.84,6.07,0.84
				c19.19,0.05,38.37,0.07,57.56-0.02c6.71-0.03,11.65-3.98,12.99-10.2c0.37-1.74,0.35-3.58,0.35-5.38
				c0.02-12.87-0.26-25.75,0.1-38.62C163.57,139.65,162.77,132.29,159.14,125.33z"/>
		</g>
	</g>
	<path class="st3" d="M159.71,135.19l-68.97,31.36c0,0-2.22,9.27-3.07,9.25s4.97,4.08,5.28,14.15c0.31,10.08-6.67,10.84-6.67,10.84
		s2.29,1.12,4.97,1.65c2.68,0.54,61.76,0,61.76,0s9.39-3.01,10.12-12.49c0.73-9.48,0.08-49.5,0.08-49.5s-0.54-4.65-0.81-5.88
		L159.71,135.19z"/>
	<path class="st4" d="M163.26,73.3L78.92,99.11V38.66c0-6.63,5.37-12,12-12h60.35c6.63,0,12,5.37,12,12V73.3z"/>
</g>
</svg>
