<?xml version="1.0" encoding="utf-8"?>
<!-- Generator: Adobe Illustrator 28.2.0, SVG Export Plug-In . SVG Version: 6.00 Build 0)  -->
<svg version="1.1" id="Capa_1" xmlns="http://www.w3.org/2000/svg" xmlns:xlink="http://www.w3.org/1999/xlink" x="0px" y="0px"
	 viewBox="0 0 1080 375.39" style="enable-background:new 0 0 1080 375.39;" xml:space="preserve">
<style type="text/css">
	.st0{fill:#E75459;}
	.st1{fill:#42894E;}
	.st2{fill:#FF555C;}
	.st3{fill:#FDE8D6;}
	.st4{fill:#FFFFFF;}
</style>
<g>
	<g>
		<g>
			<g>
				<path class="st0" d="M97.45,218.86l-2.92-2.78c0.58-2.19,1.46-3.04,1.46-3.04c0.88-1.92,0.73-4.11,0.73-4.11
					c0.58-3.36,0.73-4.67,0.73-4.67l1.17-3.36l3.8-16.36c0.29-3.36,0.58-5.84,0.58-5.84l5.11-12.27l1.02-7.01
					c1.9-4.53,1.75-6.13,1.75-6.13c0.44-6.72,0.88-8.76,0.88-8.76l2.63-5.84c0,0-5.7-6.87-6.87-12.71s-5.11-13.44,2.34-21.33
					l2.04-2.78l5.99-15.78c0.73-4.09,4.09-23.66,4.09-23.66l6.57-7.6c5.26-3.21,7.89-4.38,7.89-4.38c2.92-1.31,4.09-2.34,4.09-2.34
					c0.58-1.75,1.17-2.63,1.17-2.63c0.88-0.44,0.88-0.44,0.88-0.44l0.58-6.13c1.31-3.51,1.75-5.7,1.75-5.7s-0.15-4.38,8.47-6.28
					c8.62-1.9,10.08,5.11,10.08,5.11c3.94,2.19,4.53,3.36,4.53,3.36c0.73,1.9,1.31,2.34,1.31,2.34c-0.29,1.46-0.29,1.46-0.29,1.46
					s0.58-1.31-0.44,0.44s-2.04,3.8-2.04,3.8l-0.15,3.94l-1.31,0.88c-0.73,1.02-1.61,3.07-1.61,3.07l-2.78,3.8
					c-0.73,1.61-0.73,1.61-0.73,1.61s0,0.29-0.44,0.44c-0.44,0.15,2.19,2.78,2.19,2.78l-2.19,2.48l2.63,2.92l-0.58,5.99l0.15,5.26
					c-0.58,2.34-0.58,3.07-0.58,3.07c-0.15,4.97-0.29,7.01-0.29,7.01c0.29,1.61,1.17,1.75,1.17,1.75c-0.29,2.48-0.29,2.48-0.29,2.48
					l12.56,4.24l4.53-0.29l4.24-1.9l2.34-0.73h2.19l1.02,1.31l10.22-3.21l-1.17-2.04c0.88-1.75,0.88-1.75,0.88-1.75l16.07-1.31
					l2.04,1.46v2.63l-1.02,1.61l-2.48-0.15l-2.19-1.02l-3.07,1.02l-3.8,3.36l-2.48-0.73l-2.34-0.73l-9.2,3.67v2.76l-1.75,0.58
					c-1.31,0.73-3.07,1.75-3.07,1.75c-1.31,0.29-2.04,0.44-2.04,0.44l-1.46,0.88l-1.46-0.44l-1.61-1.02l-17.82,7.3l-7.01-4.24
					l8.62-2.48l-7.6-2.63l-11.1,5.4l-6.87,27.31l-3.21,6.87c0,0-2.19,4.67-6.87,12.71c-4.67,8.03-5.55,11.1-5.55,11.1
					c-1.17,3.94-2.63,7.16-2.63,7.16c-2.63,4.67-2.92,5.7-2.92,5.7s0.29,5.84-1.61,11.25c-1.9,5.4-4.24,6.28-4.24,6.28l-2.92,9.2
					l0.73,1.02l-0.44,5.4c-0.44,1.9,0.73,5.99,0.73,5.99l-0.15,4.24C107.82,218.86,105.93,219.73,97.45,218.86z"/>
			</g>
		</g>
		<g>
			<g>
				<path class="st0" d="M142.88,205.13l-1.17,7.91l0.58,3.48l5.4,0.88h4.38c0,0,3.8,2.68,11.25,1.85c7.45-0.83,4.38-1.27,4.38-1.27
					l-0.58-2.34l-3.8-2.6l-3.21-0.77l-2.78-1.88l-2.32-6.43c-0.75-2.04-2.5-12.12-2.5-12.12c0.44-4.97,0.73-6.57,0.73-6.57
					l0.44-16.65c-0.15-4.67,0.15-6.43,0.15-6.43l1.19-9.93c-1.04-4.82-1.34-6.87-1.34-6.87c0.73-5.99,1.9-33.6,1.9-33.6l-0.56-17.38
					l-16.23,4.67l-4.82,16.36v15.19l1.9,9.35c1.61,4.38,1.61,5.26,1.61,5.26c0.73,2.19,0.73,3.36,0.73,3.36
					c0.15,2.04,0.73,4.38,0.73,4.38c0.58,2.04,0.44,3.21,0.44,3.21c0.15,1.75,0.73,2.19,0.73,2.19l0.29,3.21
					c-0.44,1.75-0.44,2.48-0.44,2.48c0.44,1.02,0.44,1.02,0.44,1.02s0.29-1.17,0.15,0.58c-0.15,1.75-0.15,1.75-0.15,1.75
					s-0.29-1.46,0,0.44c0.29,1.9,0,3.07,0,3.07s-1.31,6.43,0.73,14.31c2.04,7.89,1.9,13.44,1.9,13.44
					c-0.15,2.78-0.44,4.09-0.44,4.09C142.88,205.13,142.88,205.13,142.88,205.13z"/>
			</g>
		</g>
		<g>
			<path class="st0" d="M136.76,132.02c0,0,2.82-2.33,6.63-6.49c3.81-4.16,6.05-0.45,12.71-2.58c6.66-2.13,5.55-6.28,1.47-6.41
				c-4.09-0.13-5.36,0.49-6.2-2.11c-0.84-2.59,6.05-4.25,6.05-4.25l13.39-5.48l-2.4-5.01l-14.17,5.45c0,0-3.14-0.26,0.67-4.42
				c3.81-4.16,4.47-1.15,5.69-4.42c1.22-3.27-6.66-3.81-12.16-0.27c-5.5,3.54-6.55,6.62-12.87,6.78
				C129.23,102.97,136.76,132.02,136.76,132.02z"/>
		</g>
		<g>
			<g>
				
					<rect x="211.81" y="83.35" transform="matrix(0.9945 -0.1049 0.1049 0.9945 -7.7468 22.7454)" class="st0" width="1.07" height="3.33"/>
			</g>
			<g>
				<path class="st0" d="M213.4,83.67l-2.39,0.25c-0.13,0.01-0.24-0.08-0.26-0.21l-0.15-1.41c-0.01-0.13,0.08-0.24,0.21-0.26
					l2.39-0.25c0.13-0.01,0.24,0.08,0.26,0.21l0.15,1.41C213.63,83.54,213.53,83.66,213.4,83.67z"/>
			</g>
		</g>
		<g>
			<g>
				
					<rect x="208.1" y="83.76" transform="matrix(0.9945 -0.1049 0.1049 0.9945 -7.8103 22.3582)" class="st0" width="1.07" height="3.33"/>
			</g>
			<g>
				<path class="st0" d="M209.24,84.13l-1.48,0.16c-0.13,0.01-0.24-0.08-0.26-0.21l-0.15-1.41c-0.01-0.13,0.08-0.24,0.21-0.26
					l1.48-0.16c0.13-0.01,0.24,0.08,0.26,0.21l0.15,1.41C209.46,84,209.37,84.12,209.24,84.13z"/>
			</g>
		</g>
		<g>
			<g>
				
					<rect x="204.39" y="84.25" transform="matrix(0.9945 -0.1049 0.1049 0.9945 -7.8823 21.9715)" class="st0" width="1.07" height="3.33"/>
			</g>
			<g>
				<path class="st0" d="M205.98,84.57l-2.39,0.25c-0.13,0.01-0.24-0.08-0.26-0.21l-0.15-1.41c-0.01-0.13,0.08-0.24,0.21-0.26
					l2.39-0.25c0.13-0.01,0.24,0.08,0.26,0.21l0.15,1.41C206.2,84.45,206.11,84.56,205.98,84.57z"/>
			</g>
		</g>
		<g>
			<g>
				
					<rect x="200.78" y="84.63" transform="matrix(0.9945 -0.1049 0.1049 0.9945 -7.9423 21.5957)" class="st0" width="1.07" height="3.33"/>
			</g>
			<g>
				<path class="st0" d="M202.08,84.99l-1.79,0.19c-0.13,0.01-0.24-0.08-0.26-0.21l-0.15-1.41c-0.01-0.13,0.08-0.24,0.21-0.26
					l1.79-0.19c0.13-0.01,0.24,0.08,0.26,0.21l0.15,1.41C202.3,84.86,202.2,84.97,202.08,84.99z"/>
			</g>
		</g>
	</g>
	<g>
		<g>
			<g>
				<path class="st1" d="M978.64,104.51l-10.57-2.15h-10.76l-50.88,9.2c0,0-8.61-0.2-18.39,1.57c-9.78,1.76-17.22,3.52-17.22,3.52
					v12.13l18.59,1.57v16.63l78.67-2.15l54.79-0.78c0,0,3.52,1.76,3.52-4.11c0-5.87,0-8.22,0-8.22l-17.61-2.54l-1.57-20.46
					l-23.48-0.87v-1.96L978.64,104.51z"/>
			</g>
		</g>
		<g>
			<g>
				<polygon class="st1" points="952.81,142.28 952.81,223.88 955.16,222.91 956.73,142.28 				"/>
			</g>
		</g>
		<g>
			<g>
				<polygon class="st1" points="903.11,144.63 871.94,219.09 873.89,219.09 905.85,144.63 				"/>
			</g>
		</g>
		<g>
			<g>
				<polygon class="st1" points="984.12,142.28 1026.39,219.19 1030.89,219.19 988.43,136.41 				"/>
			</g>
		</g>
		<g>
			<g>
				<polygon class="st1" points="931.48,142.28 943.15,219.09 945.3,219.09 935.2,142.28 				"/>
			</g>
		</g>
		<g>
			<g>
				<path class="st1" d="M980.74,143.41l-1.97,8.89c0.49,6.91,0.99,8.64,0.99,8.64l3.21,7.41c1.23,2.72,4.44,6.13,4.44,6.13
					c2.47,2.76,6.15,16.98,6.15,16.98c1.73,3.87,2.72,5.28,2.72,5.28c1.73,2.54,1.97,4.51,1.97,4.51c1.97,2.47,3.21,2.72,3.21,2.72
					c2.47,4.2,2.22,7.65,2.22,7.65s3.95,1.21-8.39,2.83c-12.34,1.62-8.46,5.32-8.46,5.32s8.06,2.58,21.54,1.23
					c0,0,10.86,4.72,17.53,0.39c6.66-4.34,9.63-1.64,6.42-6.94s-4.69-5.3-5.18-11.22c-0.49-5.92-2.22-6.49-2.22-6.49
					c-1.73-1.16-10.35-26.66-10.35-26.66l-5.92-9.13c-3.46-2.96-3.79-3.95-3.79-3.95l8.98-15.8l5.68-14.81
					c0.99-4.44,2.47-4.44,2.47-4.44h2.72l-4.44-31.35c0,0-1.73-17.53-3.21-22.22s-1.48-6.42-6.42-8.89
					c-4.94-2.47-12.34,2.22-12.34,2.22l-4.2-2.94c-1.97,0.96-3.21,1.21-3.21,1.21l-2.47-2.72c-1.48-1.97-4.26-9.87-4.26-9.87
					l-6.84-3.46c-5.18,1.97-6.91,4.2-6.91,4.2c-2.22,5.92-3.21,8.15-3.21,8.15c0.25,4.2,2.96,5.43,2.96,5.43l0.99,2.72
					c1.23,0.25,2.72,1.23,2.72,1.23l1.73,3.21c4.2,1.73,5.43,2.47,5.43,2.47c1.73,1.73-5.43,5.92-5.18,9.63
					c0.25,3.7,0.74,9.13,0.74,9.13c0.74,4.44,0.74,4.44,0.74,4.44s-1.73-1.48,0,0.74c1.73,2.22,1.73,2.22,1.73,2.22
					s1.23-2.22-0.25,0.74c-1.48,2.96-1.48,4.12-1.48,4.12c0.25,6,0,10.69,0,10.69C978.27,122.93,980.74,143.41,980.74,143.41z"/>
			</g>
		</g>
		<g>
			<g>
				<polygon class="st1" points="1026.14,219.47 943.61,145.15 874.16,219.36 873.63,218.82 943.58,144.11 943.85,144.35 
					1026.65,218.91 				"/>
			</g>
		</g>
		<g>
			<g>
				<polygon class="st1" points="952.44,219.23 943.81,149.43 945.68,219.1 944.92,219.08 943.22,144.62 943.97,144.58 
					953.19,219.14 				"/>
			</g>
		</g>
	</g>
	<g>
		<g>
			<g>
				<g>
					<path d="M639.5,216.45c0,0,0.53,6.39,5.59,7.32c5.06,0.93,10.78,0,10.78,0v-3.45l-4.79-3.87l-4.26-14.24l-0.4-4.66
						c0.8-2.79,0.8-2.79,0.8-2.79s0.93,1.06,0,0c-0.93-1.06-1.2-2-1.2-2c1.33-2,1.66-3.33,1.66-3.33c-0.6-2.4-1.26-3.46-1.26-3.46
						c-0.67-1.86,0.67-17.17,0.67-17.17l-1.06-6.12c0.4-1.6,0.53-2.93,0.53-2.93l-0.53-6.25c-1.73-4.39-2.13-6.83-2.13-6.83
						s-0.8-13.27-10.91-33.63v-2.26l-0.8-2.79l-0.93-4.26l1.46-1.73c-0.13-3.73-1.46-5.59-1.46-5.59s-0.13-4.39,1.2-8.12
						s-0.27-5.59-0.27-5.59l-1.86-3.59v-9.71h1.33l3.99,4.52l7.45,5.72l3.46,0.67l4.66,3.06l6.39,1.73c3.06,0.67,5.06,0.4,5.06,0.4
						c1.33,0.13,7.32,0.27,7.32,0.27l7.45-0.93l7.72,1.6v-1.6l-1.06-1.06l-0.53-1.06l0.93-0.13c0.27-0.93-1.33-0.93-1.33-0.93
						l-7.72-3.46l-8.12,0.8h-1.73c-1.46-1.06-1.6-2.26-1.6-2.26l-1.86-2.26l-6.65-4.39l-2.66-0.67l-2.79-3.86l-6.92-3.99
						l-6.65-10.51l-6.12-7.85l-12.64-4.26l-2.93-2.66c-0.53-1.06-1.33-1.6-1.33-1.6s-1.6-3.73-0.93-7.58s2.13-4.66,2.13-4.66h1.33
						c0,0,1.98-0.23,2.12-2.06c0.14-1.83-1.35-2.98-1.35-2.98l-0.41-0.88c0,0-0.34-6.57-1.49-8.19c-1.15-1.62-2.44-6.3-7.24-8.33
						v0.74c-0.88-0.2-1.56-0.41-1.56-0.41c-0.54-0.14-0.81,0-0.81,0c-0.54,0.27-0.95,0.34-0.95,0.34c-0.61,0.14-1.29,0.14-1.29,0.14
						c-0.07,0.34,0,0.95,0,0.95c-0.88,0.41-3.25,1.69-3.25,1.69c-0.54,0.61-0.47,1.08-0.47,1.08c-0.47,0.61-0.47,0.88-0.47,0.88
						c0.07,0.95,0,1.62,0,1.62s-1.35,2.3-1.76,9.27v0.74c0,0-2.1,1.22-1.42,2.84c0.68,1.62,1.02,2.57,1.02,2.57
						c0.74,0.27,1.02,0.14,1.02,0.14c0.54,0,1.83,3.86,1.83,3.86l-0.07,7.04l-1.56,0.74l-1.49,1.69c-0.41,0.81-0.88,0.81-0.88,0.81
						l-6.84,1.9l-3.25,0.88l-3.38,1.22c-1.49,0.54-2.03,0.88-2.03,0.88c-0.07,1.02,0,1.42,0,1.42l-5.01,5.21l-1.35,2.64
						c-1.35,1.83-2.23,2.17-2.23,2.17l-2.78-0.41l-6.23,4.2l-1.42,0.88l-1.69,0.54l-1.76,1.29l-4.26,3.11l-1.56,1.15l-3.11-0.07
						l-4.06,0.54l-1.56,1.76v1.49c-0.27,0.68-2.1,1.42-2.1,1.42l-2.78,0.2l-10.29-1.69l-3.45-0.47l-5.89,1.76l-3.38,2.1l1.69,0.95
						l2.23-0.47l3.38,0.07c-1.96,0.95-6.77,2.57-4.94,2.71c1.83,0.14,6.36-0.68,6.36-0.68l3.52-0.27c0,0,0.74,1.15,5.15,2.57
						c0,0,0.47,3.11,2.98,1.76c2.5-1.35,1.83-1.22,1.83-1.22h2.37c1.22-0.68,1.62-0.81,1.62-0.81l1.96,1.08l4.74-0.81
						c3.66-0.2,9.48-1.08,9.48-1.08l5.62-1.96c3.79-0.14,5.15-0.54,5.15-0.54c2.57-1.22,3.25-1.96,3.25-1.96
						c1.42-1.15,1.96-1.9,1.96-1.9c1.56-1.15,2.64-1.9,2.64-1.9c2.71-2.1,3.59-3.32,3.59-3.32l2.17,0.74l0.47,1.96l-1.35,20.92
						l0.2,3.18c-0.54,3.45-2.23,5.42-1.9,8.33s1.08,3.99,1.08,3.99c1.02,2.3,0.81,3.25,0.81,3.25c-0.2,2.64-0.27,3.32-0.27,3.32
						c1.15,0.2,1.42,0.47,1.42,0.47l-0.88,7.72l-0.81,3.45c-0.47,3.52-0.68,21.66-0.68,21.66l0.27,8.12l-0.27,9.95
						c-0.34,1.76-0.74,2.98-0.74,2.98c-0.61,1.62-0.81,2.17-0.81,2.17c-0.27,2.03-0.34,2.98-0.34,2.98
						c-0.34,1.62-0.47,2.03-0.47,2.03c-0.27,2.44-0.41,3.25-0.41,3.25c-0.07,2.3-0.27,12.79-0.41,17.74
						c-0.14,4.94-0.88,7.04-0.88,7.04c0.2,2.03,0.2,2.5,0.2,2.5l0.41,1.56c0.2,1.69-0.68,2.84-0.68,2.84l0.27,1.62
						c0.68,1.02,1.02,1.76,1.02,1.76l-0.61,2.5l-0.41,1.69l-2.98,7.99l-3.93,3.36c0,0-1.42,2.8-1.02,3.96
						c0.41,1.15,0.95,2.44,0.95,2.44l11.98-2.64l6.03-3.11l-0.34-7.51c-0.61-2.78-0.74-3.45-0.74-3.45c-0.88-1.76-0.95-2.3-0.95-2.3
						c0.27-0.95,0.88-1.56,0.88-1.56c0.14-1.96,0.07-2.44,0.07-2.44c0.41-1.15,1.08-1.83,1.08-1.83c0.2-1.83,0-2.5,0-2.5
						c0-1.49,0.41-2.57,0.41-2.57c0.47-2.03-0.14-3.38-0.14-3.38c-0.47-1.29,1.76-3.05,2.23-8.73c0.47-5.69,1.22-11.51,1.22-11.51
						c0.27-1.83,0.14-2.71,0.14-2.71c-0.47-1.49-0.61-2.3-0.61-2.3c0.95-1.35,1.15-2.03,1.15-2.03c-0.74-2.37-0.81-2.91-0.81-2.91
						l1.49-0.95c0.41-2.17,0.34-2.84,0.34-2.84c0.47-1.42,0.68-1.76,0.68-1.76c0.54-1.22,0.47-2.23,0.47-2.23l6.03-22.81
						c0,0,5.15-10.49,10.09-10.09c4.94,0.41,22.34,27.96,22.34,27.96l1.15,3.38c0.47,2.1,0.68,2.84,0.68,2.84
						c0.54,2.57,0.74,3.45,0.74,3.45s-1.29,7.58-0.68,13.61c0.61,6.03,1.29,10.02,1.29,10.02c0.14,2.84,0.47,3.59,0.47,3.59
						c0.95,2.3,0.95,2.84,0.95,2.84c-0.34,0.88-0.34,0.88-0.34,0.88s-0.95-1.56-0.14,0.2c0.81,1.76,0.88,2.3,0.88,2.3
						c-0.07,3.11-0.2,3.72-0.2,3.72s-3.99,4.6-3.86,6.5s2.3,3.93,2.3,3.93L639.5,216.45z"/>
				</g>
			</g>
			<g>
				<polygon points="605.38,124.71 607.97,222.4 610.11,222.4 610.11,213.39 607.74,123.81 				"/>
			</g>
			<g>
				<path d="M608.53,213.27H607l-2.75,7.1v2.82c0,0,1.13,2.82,6.31,1.24s4.62-1.24,4.62-1.24l-0.9-4.1l-1.13-2.89l-0.68-2.93H608.53
					z"/>
			</g>
			<g>
				<polygon points="574.96,229.27 606.5,223.3 604.75,219.09 574.28,227.92 				"/>
			</g>
			<g>
				<polygon points="612.48,222.4 613.29,223.62 638.5,227.02 638.5,224.91 611.91,219.09 				"/>
			</g>
			<g>
				<path d="M607.74,223.06l4.17,19.4l1.92,1.01c1.13-1.58,1.37-2.82,1.37-2.82l-3.73-19.72L607.74,223.06z"/>
			</g>
		</g>
		<g>
			<g>
				<circle cx="441.18" cy="193.54" r="35.02"/>
			</g>
			<g>
				<ellipse transform="matrix(0.1194 -0.9928 0.9928 0.1194 228.9836 543.7876)" cx="421.04" cy="142.81" rx="7.18" ry="26.29"/>
			</g>
			<g>
				<g>
					<ellipse cx="484.74" cy="169.63" rx="18.72" ry="7.26"/>
				</g>
				<g>
					<ellipse cx="484.74" cy="145.03" rx="18.72" ry="7.26"/>
				</g>
				<g>
					<rect x="466.02" y="145.03" width="37.44" height="24.61"/>
				</g>
			</g>
			<g>
				<g>
					<ellipse transform="matrix(0.2961 -0.9551 0.9551 0.2961 139.7996 511.3973)" cx="416.88" cy="160.85" rx="3.82" ry="18.72"/>
				</g>
				<g>
					<ellipse transform="matrix(0.2961 -0.9551 0.9551 0.2961 124.7357 516.493)" cx="412.81" cy="173.61" rx="3.82" ry="18.72"/>
				</g>
				<g>
					<polygon points="399,155.3 394.92,168.07 430.69,179.16 434.76,166.39 					"/>
				</g>
			</g>
			<g>
				<g>
					<rect x="510.04" y="130.3" width="2" height="21.23"/>
				</g>
				<g>
					<rect x="509.58" y="155.91" width="2.92" height="57.22"/>
				</g>
				<g>
					<rect x="509.1" y="151.53" width="3.87" height="2.98"/>
				</g>
				<g>
					<rect x="509.37" y="153.76" width="3.33" height="2.98"/>
				</g>
				<g>
					<rect x="526.8" y="183.78" transform="matrix(0.546 -0.8378 0.8378 0.546 69.0464 534.5132)" width="1.8" height="39.55"/>
				</g>
				<g>
					<rect x="543.86" y="213.17" transform="matrix(0.7787 -0.6274 0.6274 0.7787 -14.647 389.7498)" width="2.67" height="4.94"/>
				</g>
				<g>
					<circle cx="547.72" cy="218.55" r="2.36"/>
				</g>
				<g>
					<rect x="508.7" y="212.61" width="4.76" height="3.24"/>
				</g>
				<g>
					<path d="M528.55,204.76l-15.66,8.76c0,0,0.1,1.48,0.33,1.57c0.24,0.1,16.9-9.47,16.9-9.47L528.55,204.76z"/>
				</g>
				<g>
					<path d="M510.04,193.09l-1.33,0.57c0,0-0.38-0.05-0.62,0c-0.24,0.05-16.8,15.28-16.8,15.28l0.29,1.29h1.33l16.04-14.61
						l1.81-0.52L510.04,193.09z"/>
				</g>
				<g>
					<polygon points="491.8,208.99 490.47,209.33 489.47,211.52 491.61,212.13 493.14,209.47 					"/>
				</g>
				<g>
					<g>
						<ellipse cx="488.57" cy="213.04" rx="1.17" ry="1.86"/>
					</g>
					<g>
						<ellipse cx="491.28" cy="213.04" rx="1.17" ry="1.86"/>
					</g>
					<g>
						<rect x="488.57" y="211.18" width="2.71" height="3.71"/>
					</g>
				</g>
				<g>
					<polygon points="510.13,197.76 498.71,221.47 496.61,220.56 496.61,219.04 508.18,195.57 510.75,194.66 					"/>
				</g>
				<g>
					<ellipse cx="497.39" cy="226.33" rx="0.89" ry="2.23"/>
				</g>
				<g>
					<ellipse cx="494.27" cy="226.33" rx="0.89" ry="2.23"/>
				</g>
				<g>
					<rect x="494.27" y="224.11" width="3.12" height="4.45"/>
				</g>
				<g>
					<path d="M499.06,221.8c0,0-1.21-1.5-3.02-1l-1.21,3.48l3.15,0.4L499.06,221.8z"/>
				</g>
				<g>
					<rect x="509.08" y="126.02" width="3.49" height="4.28"/>
				</g>
				<g>
					<g>
						<ellipse cx="510.56" cy="126.99" rx="1.29" ry="2.33"/>
					</g>
					<g>
						<ellipse cx="514.21" cy="126.99" rx="1.29" ry="2.33"/>
					</g>
					<g>
						<polyline points="514.21,124.65 510.56,124.65 510.56,129.32 514.21,129.32 514.21,124.73 						"/>
					</g>
				</g>
				<g>
					<circle cx="525.6" cy="131.97" r="0.97"/>
				</g>
				<g>
					<circle cx="503.51" cy="122.48" r="0.97"/>
				</g>
				<g>
					<polygon points="525.6,131 503.69,121.53 503.51,123.45 525.6,132.94 					"/>
				</g>
				<g>
					<ellipse cx="501.41" cy="121.08" rx="1.71" ry="2.36"/>
				</g>
				<g>
					<ellipse cx="502.81" cy="121.08" rx="1.71" ry="2.36"/>
				</g>
				<g>
					<path d="M501.41,118.72c0,0,1.25-0.01,1.4,0c0.15,0.01,0,4.73,0,4.73h-1.4V118.72z"/>
				</g>
				<g>
					<ellipse cx="501.41" cy="113.78" rx="19.95" ry="3.92"/>
				</g>
				<g>
					<rect x="500.58" y="111.9" width="1.66" height="8.54"/>
				</g>
				<g>
					<path d="M501.41,109.99c0,0,0.37-0.83,0.5-0.89c0.13-0.06,0.9-0.86,0.9-0.86l-1.4-0.73l-1.34,0.92l-0.36,0.86l0.62,1.36
						L501.41,109.99z"/>
				</g>
				<g>
					<polygon points="500.83,109.87 500.83,110.35 502.55,110.11 502.42,109.26 502.55,108.88 502.81,108.25 502.14,108.25 					"/>
				</g>
			</g>
			<g>
				<g>
					<rect x="493.23" y="142.23" width="1.69" height="17.99"/>
				</g>
				<g>
					<rect x="492.84" y="163.92" width="2.47" height="48.47"/>
				</g>
				<g>
					<rect x="492.44" y="160.21" width="3.28" height="2.53"/>
				</g>
				<g>
					<rect x="492.66" y="162.1" width="2.82" height="2.53"/>
				</g>
				<g>
					<rect x="507.43" y="187.53" transform="matrix(0.546 -0.8378 0.8378 0.546 59.5798 518.5012)" width="1.52" height="33.5"/>
				</g>
				<g>
					<rect x="521.89" y="212.43" transform="matrix(0.7787 -0.6274 0.6274 0.7787 -18.8529 375.5861)" width="2.26" height="4.18"/>
				</g>
				<g>
					<circle cx="525.15" cy="216.98" r="2"/>
				</g>
				<g>
					<rect x="492.1" y="211.95" width="4.03" height="2.74"/>
				</g>
				<g>
					<path d="M508.92,205.3l-13.27,7.42c0,0,0.08,1.25,0.28,1.33s14.32-8.03,14.32-8.03L508.92,205.3z"/>
				</g>
				<g>
					<path d="M493.23,195.42l-1.13,0.48c0,0-0.32-0.04-0.52,0s-14.24,12.95-14.24,12.95l0.24,1.09h1.13l13.59-12.38l1.53-0.44
						L493.23,195.42z"/>
				</g>
				<g>
					<polygon points="477.78,208.89 476.65,209.17 475.81,211.03 477.62,211.55 478.91,209.29 					"/>
				</g>
				<g>
					<g>
						<ellipse cx="475.04" cy="212.32" rx="0.99" ry="1.57"/>
					</g>
					<g>
						<ellipse cx="477.34" cy="212.32" rx="0.99" ry="1.57"/>
					</g>
					<g>
						<rect x="475.04" y="210.74" width="2.3" height="3.15"/>
					</g>
				</g>
				<g>
					<polygon points="493.31,199.37 483.63,219.46 481.86,218.69 481.86,217.4 491.66,197.52 493.83,196.75 					"/>
				</g>
				<g>
					<ellipse cx="482.51" cy="223.58" rx="0.76" ry="1.89"/>
				</g>
				<g>
					<ellipse cx="479.87" cy="223.58" rx="0.76" ry="1.89"/>
				</g>
				<g>
					<rect x="479.87" y="221.69" width="2.64" height="3.77"/>
				</g>
				<g>
					<path d="M483.93,219.74c0,0-1.03-1.27-2.56-0.85l-1.03,2.94l2.67,0.34L483.93,219.74z"/>
				</g>
				<g>
					<rect x="492.42" y="138.6" width="2.96" height="3.63"/>
				</g>
				<g>
					<g>
						<ellipse cx="493.67" cy="139.42" rx="1.09" ry="1.98"/>
					</g>
					<g>
						<ellipse cx="496.76" cy="139.42" rx="1.09" ry="1.98"/>
					</g>
					<g>
						<polyline points="496.76,137.44 493.67,137.44 493.67,141.39 496.76,141.39 496.76,137.51 						"/>
					</g>
				</g>
				<g>
					<circle cx="506.42" cy="143.64" r="0.82"/>
				</g>
				<g>
					<circle cx="487.7" cy="135.6" r="0.82"/>
				</g>
				<g>
					<polygon points="506.42,142.82 487.85,134.8 487.7,136.42 506.42,144.46 					"/>
				</g>
				<g>
					<ellipse cx="485.92" cy="134.42" rx="1.45" ry="2"/>
				</g>
				<g>
					<ellipse cx="487.11" cy="134.42" rx="1.45" ry="2"/>
				</g>
				<g>
					<path d="M485.92,132.42c0,0,1.06-0.01,1.18,0c0.12,0.01,0,4.01,0,4.01h-1.18V132.42z"/>
				</g>
				<g>
					<rect x="485.22" y="126.64" width="1.4" height="7.23"/>
				</g>
				<g>
					<g>
						<ellipse transform="matrix(0.9436 -0.331 0.331 0.9436 -15.0154 168.2005)" cx="486.25" cy="128.18" rx="16.9" ry="3.32"/>
					</g>
					<g>
						<path d="M485.19,125.15c0,0,0.07-0.76,0.15-0.85c0.08-0.09,0.48-0.94,0.48-0.94l-1.32-0.19l-0.81,1.11l-0.05,0.79l0.88,0.92
							L485.19,125.15z"/>
					</g>
					<g>
						<polygon points="484.69,125.21 484.83,125.59 486.13,124.92 485.79,124.28 485.78,123.94 485.82,123.36 485.28,123.55 						
							"/>
					</g>
				</g>
			</g>
			<g>
				<g>
					<rect x="393.35" y="130.3" width="2" height="21.23"/>
				</g>
				<g>
					<rect x="392.89" y="155.91" width="2.92" height="57.22"/>
				</g>
				<g>
					<rect x="392.42" y="151.53" width="3.87" height="2.98"/>
				</g>
				<g>
					<rect x="392.68" y="153.76" width="3.33" height="2.98"/>
				</g>
				<g>
					<rect x="357.92" y="202.65" transform="matrix(0.8378 -0.546 0.546 0.8378 -49.8719 239.2333)" width="39.55" height="1.8"/>
				</g>
				<g>
					<rect x="357.72" y="214.31" transform="matrix(0.6274 -0.7787 0.7787 0.6274 -33.7031 360.8461)" width="4.94" height="2.67"/>
				</g>
				<g>
					<circle cx="357.66" cy="218.55" r="2.36"/>
				</g>
				<g>
					<rect x="391.92" y="212.61" width="4.76" height="3.24"/>
				</g>
				<g>
					<path d="M376.83,204.76l15.66,8.76c0,0-0.1,1.48-0.33,1.57c-0.24,0.1-16.9-9.47-16.9-9.47L376.83,204.76z"/>
				</g>
				<g>
					<path d="M395.35,193.09l1.33,0.57c0,0,0.38-0.05,0.62,0c0.24,0.05,16.8,15.28,16.8,15.28l-0.29,1.29h-1.33l-16.04-14.61
						l-1.81-0.52L395.35,193.09z"/>
				</g>
				<g>
					<polygon points="413.58,208.99 414.92,209.33 415.92,211.52 413.77,212.13 412.25,209.47 					"/>
				</g>
				<g>
					<g>
						<ellipse cx="416.82" cy="213.04" rx="1.17" ry="1.86"/>
					</g>
					<g>
						<ellipse cx="414.11" cy="213.04" rx="1.17" ry="1.86"/>
					</g>
					<g>
						<rect x="414.11" y="211.18" width="2.71" height="3.71"/>
					</g>
				</g>
				<g>
					<polygon points="395.26,197.76 406.68,221.47 408.77,220.56 408.77,219.04 397.21,195.57 394.64,194.66 					"/>
				</g>
				<g>
					<ellipse cx="408" cy="226.33" rx="0.89" ry="2.23"/>
				</g>
				<g>
					<ellipse cx="411.12" cy="226.33" rx="0.89" ry="2.23"/>
				</g>
				<g>
					<rect x="408" y="224.11" width="3.12" height="4.45"/>
				</g>
				<g>
					<path d="M406.32,221.8c0,0,1.21-1.5,3.02-1l1.21,3.48l-3.15,0.4L406.32,221.8z"/>
				</g>
				<g>
					<rect x="392.81" y="126.02" width="3.49" height="4.28"/>
				</g>
				<g>
					<g>
						<ellipse cx="394.83" cy="126.99" rx="1.29" ry="2.33"/>
					</g>
					<g>
						<ellipse cx="391.18" cy="126.99" rx="1.29" ry="2.33"/>
					</g>
					<g>
						<polyline points="391.18,124.65 394.83,124.65 394.83,129.32 391.18,129.32 391.18,124.73 						"/>
					</g>
				</g>
				<g>
					<circle cx="379.78" cy="131.97" r="0.97"/>
				</g>
				<g>
					<circle cx="401.87" cy="122.48" r="0.97"/>
				</g>
				<g>
					<polygon points="379.78,131 401.7,121.53 401.87,123.45 379.78,132.94 					"/>
				</g>
				<g>
					<ellipse cx="403.97" cy="121.08" rx="1.71" ry="2.36"/>
				</g>
				<g>
					<ellipse cx="402.58" cy="121.08" rx="1.71" ry="2.36"/>
				</g>
				<g>
					<path d="M403.97,118.72c0,0-1.25-0.01-1.4,0c-0.15,0.01,0,4.73,0,4.73h1.4V118.72z"/>
				</g>
				<g>
					<ellipse cx="403.97" cy="113.78" rx="19.95" ry="3.92"/>
				</g>
				<g>
					<rect x="403.15" y="111.9" width="1.66" height="8.54"/>
				</g>
				<g>
					<path d="M403.97,109.99c0,0-0.37-0.83-0.5-0.89c-0.13-0.06-0.9-0.86-0.9-0.86l1.4-0.73l1.34,0.92l0.36,0.86l-0.62,1.36
						L403.97,109.99z"/>
				</g>
				<g>
					<polygon points="404.55,109.87 404.55,110.35 402.84,110.11 402.97,109.26 402.84,108.88 402.58,108.25 403.24,108.25 					"/>
				</g>
			</g>
			<g>
				<g>
					<rect x="473.2" y="149.32" width="2.92" height="57.22"/>
				</g>
				<g>
					<rect x="472.73" y="144.94" width="3.87" height="2.98"/>
				</g>
				<g>
					<rect x="473" y="147.16" width="3.33" height="2.98"/>
				</g>
				<g>
					<rect x="438.23" y="196.06" transform="matrix(0.8378 -0.546 0.546 0.8378 -33.244 282.0134)" width="39.55" height="1.8"/>
				</g>
				<g>
					<rect x="438.04" y="207.71" transform="matrix(0.6274 -0.7787 0.7787 0.6274 1.3597 420.9301)" width="4.94" height="2.67"/>
				</g>
				<g>
					<circle cx="437.98" cy="211.95" r="2.36"/>
				</g>
				<g>
					<rect x="472.24" y="206.02" width="4.76" height="3.24"/>
				</g>
				<g>
					<path d="M457.14,198.16l15.66,8.76c0,0-0.1,1.48-0.33,1.57c-0.24,0.1-16.9-9.47-16.9-9.47L457.14,198.16z"/>
				</g>
				<g>
					<path d="M475.66,186.5l1.33,0.57c0,0,0.38-0.05,0.62,0c0.24,0.05,16.8,15.28,16.8,15.28l-0.29,1.29h-1.33l-16.04-14.61
						l-1.81-0.52L475.66,186.5z"/>
				</g>
				<g>
					<polygon points="493.9,202.4 495.23,202.73 496.23,204.92 494.09,205.54 492.56,202.87 					"/>
				</g>
				<g>
					<g>
						<ellipse cx="497.13" cy="206.44" rx="1.17" ry="1.86"/>
					</g>
					<g>
						<ellipse cx="494.42" cy="206.44" rx="1.17" ry="1.86"/>
					</g>
					<g>
						<rect x="494.42" y="204.59" width="2.71" height="3.71"/>
					</g>
				</g>
				<g>
					<polygon points="475.57,191.16 486.99,214.87 489.09,213.97 489.09,212.44 477.52,188.97 474.95,188.07 					"/>
				</g>
				<g>
					<ellipse cx="488.31" cy="219.74" rx="0.89" ry="2.23"/>
				</g>
				<g>
					<ellipse cx="491.43" cy="219.74" rx="0.89" ry="2.23"/>
				</g>
				<g>
					<rect x="488.31" y="217.51" width="3.12" height="4.45"/>
				</g>
				<g>
					<path d="M486.64,215.2c0,0,1.21-1.5,3.02-1l1.21,3.48l-3.15,0.4L486.64,215.2z"/>
				</g>
			</g>
			<g>
				<g>
					<path d="M477.54,181.58c3.86-0.28,7.74-0.3,11.6-0.06c0.87,0.05,1.82,0.16,2.44,0.77c0.47,0.46,0.65,1.13,0.82,1.77
						c2.17,8.06,5.14,15.89,8.86,23.37c0.24,0.48,0.54,1,1.06,1.12c0.35,0.08,0.71-0.05,1.05-0.18c1.73-0.66,3.65-1.51,4.28-3.26
						c0.3-0.85,0.24-1.79,0.16-2.69c-0.79-9.33-2.25-18.6-4.37-27.72c-0.62-2.65-1.5-5.58-3.87-6.9c-1.06-0.59-2.29-0.78-3.5-0.93
						c-7.59-0.93-15.26-0.69-22.9-0.45c-4.23,0.13-8.53,0.28-12.53,1.67c-0.8,0.28-1.63,0.64-2.09,1.35
						c-0.66,1.03-0.32,2.38,0.04,3.55c1.1,3.56,2.2,7.13,3.3,10.69c0.29,0.95,0.75,2.05,1.72,2.24"/>
				</g>
			</g>
			<g>
				<path d="M500.58,202.68l-0.88,15.87l20.19,0.44c3.87-3.57,2.74-6.2,2.74-6.2c-4.09-1.05-7.14-1.96-7.14-1.96
					c-3-2.84-5.25-4.81-5.25-4.81C507.68,201.05,500.58,202.68,500.58,202.68z"/>
			</g>
			<g>
				<path d="M452.97,163.36L452,153.03c0,0-6.37,5.81-10.82,0.73c-4.46-5.08,4.25-18.16,4.25-18.16l4.45-9.58
					c5.61-2.88,12.38-4.94,12.38-4.94l2.32-2.37c2.9-2.15,1.44-4.93,1.44-4.93l-0.86-4.49c0.19-2.21,0.86-3.76,0.86-3.76
					c1.07-0.58,2.04-2.32,2.04-2.32l3.87-3.87l5.41-1.35l5.93,4.45c-0.9,7.54-1.8,11.34-1.8,11.34c-1.42,2.97-2.35,3.92-2.35,3.92
					c-1,4.28-0.79,5.46-0.79,5.46c3.55,3.1,4.18,3.82,4.18,3.82l2.18,3.26l1.56,14.21l-0.84,15.75l-1.78,13.4
					c-9.58,4.47-15.77,4.66-15.77,4.66C463.03,174.79,452.97,163.36,452.97,163.36z"/>
			</g>
			<g>
				<path d="M452.49,130.9l-0.68,0.08c-0.09,0.01-0.17-0.05-0.18-0.14l-2.28-20.21c-0.01-0.09,0.05-0.17,0.14-0.18l0.68-0.08
					c0.09-0.01,0.17,0.05,0.18,0.14l2.28,20.21C452.64,130.81,452.58,130.89,452.49,130.9z"/>
			</g>
			<g>
				<path d="M487.07,146.97l-0.58-0.38c-0.07-0.05-0.09-0.15-0.05-0.22l11.1-17.04c0.05-0.07,0.15-0.09,0.22-0.05l0.58,0.38
					c0.07,0.05,0.09,0.15,0.05,0.22l-11.1,17.04C487.24,147,487.15,147.02,487.07,146.97z"/>
			</g>
		</g>
	</g>
	<g>
		<path class="st2" d="M232.93,375.39H31.09c-12.27,0-22.22-9.95-22.22-22.22V238.71c0-12.27,9.95-22.22,22.22-22.22h201.84
			c12.27,0,22.22,9.95,22.22,22.22v114.46C255.15,365.44,245.2,375.39,232.93,375.39z"/>
	</g>
	<g>
		<path class="st1" d="M1046.78,372.64H844.93c-12.27,0-22.22-9.95-22.22-22.22V238.71c0-12.27,9.95-22.22,22.22-22.22h201.84
			c12.27,0,22.22,9.95,22.22,22.22v111.71C1069,362.69,1059.05,372.64,1046.78,372.64z"/>
	</g>
	<g>
		<path class="st3" d="M32.69,281.01c4.47-0.37,4.84-1.29,4.84-5.44v-17.15c0-3.23-0.92-5.35-4.84-5.44v-1.01
			c5.63,0,11.39-0.28,17.15-0.28c4.89,0,10.28,2.91,10.28,8.39c0,2.95-2.21,5.21-4.84,6.13v0.09c3.73,0.78,7.24,3.92,7.24,7.93
			c0,6.13-4.89,8.16-11.25,8.16c-1.94,0-5.35-0.46-11.16-0.46c-3.87,0-5.53,0.09-7.42,0.18V281.01z M43.71,265.61
			c1.01,0.37,2.21,0.65,3.69,0.65c3.78,0,6.09-2.77,6.09-6.27c0-4.43-2.67-6.46-6.87-6.46c-0.97,0-1.89,0.09-2.9,0.14V265.61z
			 M43.71,279.58c1.48,0.69,3.04,0.97,4.61,0.97c4.29,0,7.29-2.35,7.29-6.78c0-2.44-1.34-4.84-3.18-6.36
			c-1.29,0.32-2.63,0.51-3.92,0.51c-2.12,0-3.6-0.18-4.8-0.69V279.58z"/>
		<path class="st3" d="M63.17,281.01c3.46-0.37,4.24-2.12,5.49-5.03l9.04-21.07l-0.83-2.21c1.94-0.37,3.92-0.88,5.67-1.66
			l10.01,27.16c0.74,1.98,2.86,2.81,4.75,2.81v1.11c-2.4-0.14-5.99-0.18-8.35-0.18c-2.58,0-5.16,0.05-7.7,0.18v-1.11
			c3.18-0.23,4.7-0.97,4.7-2.58c0-1.15-1.06-3.55-1.52-4.84l-1.57-4.56h-9.18l-2.35,6.5c-0.28,0.83-0.74,1.57-0.74,2.77
			c0,1.52,2.4,2.44,4.06,2.72v1.11c-1.98-0.14-3.97-0.18-5.95-0.18c-1.84,0-3.69,0.05-5.53,0.18V281.01z M82.21,267.27l-3.78-10.79
			h-0.09l-4.01,10.79H82.21z"/>
		<path class="st3" d="M114.03,256.61c0-2.91-2.44-3.92-6.18-3.83v-1.11c3.09,0.14,6.18,0.28,9.27,0.28c2.4,0,4.75-0.14,7.15-0.28
			v1.11c-2.9,0.14-4.06,0.88-4.06,3.37v18.49c0,3.32-3.46,7.66-11.94,7.66c-4.15,0-10.42-1.84-10.42-6.92c0-1.75,1.15-3.6,3.27-3.6
			c2.07,0,3.55,1.2,3.55,3.37c0,0.74-0.23,1.48-0.69,2.03c0.92,2.12,2.67,3.64,5.07,3.64c3.73,0,4.98-4.06,4.98-7.15V256.61z"/>
		<path class="st3" d="M126.94,251.68c2.81,0.14,5.58,0.28,8.39,0.28c2.67,0,5.3-0.14,7.98-0.28v1.11
			c-4.24,0.14-5.26,1.43-5.26,5.07v19.55c0,2.4,1.38,3.41,5.12,3.6l-0.09,1.11c-2.67-0.14-5.35-0.18-8.02-0.18
			c-2.77,0-5.53,0.05-8.3,0.18v-1.11c3.74-0.18,5.12-1.2,5.12-3.6v-19.55c0-3.64-1.11-4.93-4.93-5.07V251.68z"/>
		<path class="st3" d="M167.79,260.86c-1.29-4.52-5.72-8.16-10.15-8.16c-2.77,0-4.98,1.48-4.98,4.33c0,6.69,17.75,5.86,17.75,17.11
			c0,5.3-4.29,8.71-10.97,8.71c-3.09,0-6.09-1.34-9.18-1.34c-0.46,0-1.8,0.37-2.31,0.6c-0.46-3.41-0.97-6.96-1.84-10.51h1.01
			c1.29,4.61,6.55,9.22,11.25,9.22c4.06,0,6.78-1.06,6.78-4.7c0-7.52-18.03-6.78-18.03-16.83c0-5.72,3.5-8.25,10.61-8.25
			c3.69,0,6.87,1.38,9.18,1.38h1.66c-0.05,1.01-0.14,1.94-0.14,2.91c0,1.8,0.18,3.74,0.32,5.53H167.79z"/>
		<path class="st3" d="M200.67,261.32c-1.38-6.82-4.52-7.61-10.01-7.61v22.04c0,4.15,0.37,5.07,5.07,5.44v0.92
			c-2.58-0.09-5.21-0.18-7.84-0.18c-2.81,0-5.58,0.09-8.48,0.18v-0.92c4.7-0.37,5.07-1.29,5.07-5.44v-22.04
			c-5.49,0-8.62,0.78-10.01,7.61h-1.2c0.23-2.31,0.46-4.56,0.46-9.64c4.61,0.14,9.08,0.28,13.6,0.28c4.61,0,9.22-0.14,13.88-0.28
			c0,5.07,0.23,7.33,0.46,9.64H200.67z"/>
		<path class="st3" d="M198.08,281.01c3.46-0.37,4.24-2.12,5.49-5.03l9.04-21.07l-0.83-2.21c1.94-0.37,3.92-0.88,5.67-1.66
			l10.01,27.16c0.74,1.98,2.86,2.81,4.75,2.81v1.11c-2.4-0.14-5.99-0.18-8.35-0.18c-2.58,0-5.16,0.05-7.7,0.18v-1.11
			c3.18-0.23,4.7-0.97,4.7-2.58c0-1.15-1.06-3.55-1.52-4.84l-1.57-4.56h-9.18l-2.35,6.5c-0.28,0.83-0.74,1.57-0.74,2.77
			c0,1.52,2.4,2.44,4.06,2.72v1.11c-1.98-0.14-3.97-0.18-5.95-0.18c-1.84,0-3.69,0.05-5.53,0.18V281.01z M217.13,267.27l-3.78-10.79
			h-0.09l-4.01,10.79H217.13z"/>
		<path class="st3" d="M47.01,297.34c2.75,0.11,5.28,0.22,8.6,0.22c3.99,0,8.03-0.34,12.42-0.34c7.75,0,12.64,4.83,12.64,10.9
			c0,5.22-3.6,7.92-8.37,8.99c3.2,5.11,9.5,15,16.24,16.18v1.01c-2.13-0.11-4.21-0.22-6.35-0.22c-1.85,0-3.76,0.11-5.62,0.22
			c-4.66-5-8.76-10.51-12.02-16.46c-1.29-0.17-3.2-0.39-3.99-1.01v9.72c0,5.06,0.45,5.96,5.67,6.4v1.35
			c-2.64-0.11-5.84-0.22-9.05-0.22c-3.43,0-6.8,0.11-10.17,0.22v-1.35c5.56-0.45,6.01-1.35,6.01-6.4V305.2
			c0-4.5-0.45-6.18-6.01-6.63V297.34z M60.55,314.64c1.18,0.56,2.42,0.84,3.76,0.84c4.94,0,8.26-2.87,8.26-8.15
			c0-4.49-2.98-8.09-7.64-8.09c-1.46,0-2.92,0.11-4.38,0.62V314.64z"/>
		<path class="st3" d="M131.73,315.82c0,12.19-8.88,19.38-21.57,19.38c-12.7,0-21.57-7.19-21.57-19.38
			c0-12.19,8.88-19.38,21.57-19.38C122.86,296.44,131.73,303.63,131.73,315.82z M96.67,315.82c0,9.21,4.16,17.36,13.48,17.36
			c9.33,0,13.48-8.15,13.48-17.36s-4.16-17.36-13.48-17.36C100.83,298.46,96.67,306.61,96.67,315.82z"/>
		<path class="st3" d="M155.38,303.24c0-3.54-2.98-4.78-7.53-4.66v-1.35c3.76,0.17,7.53,0.34,11.29,0.34c2.92,0,5.79-0.17,8.71-0.34
			v1.35c-3.54,0.17-4.94,1.07-4.94,4.1v22.53c0,4.04-4.21,9.33-14.55,9.33c-5.06,0-12.7-2.25-12.7-8.43c0-2.14,1.4-4.38,3.99-4.38
			c2.53,0,4.33,1.46,4.33,4.1c0,0.9-0.28,1.8-0.84,2.47c1.12,2.58,3.26,4.44,6.18,4.44c4.55,0,6.07-4.94,6.07-8.71V303.24z"/>
		<path class="st3" d="M214.99,315.82c0,12.19-8.88,19.38-21.57,19.38c-12.7,0-21.57-7.19-21.57-19.38
			c0-12.19,8.88-19.38,21.57-19.38C206.12,296.44,214.99,303.63,214.99,315.82z M179.93,315.82c0,9.21,4.16,17.36,13.48,17.36
			c9.33,0,13.48-8.15,13.48-17.36s-4.16-17.36-13.48-17.36C184.09,298.46,179.93,306.61,179.93,315.82z"/>
	</g>
	<g>
		<path class="st3" d="M874.09,258.14c0-4.15-0.78-4.98-4.93-5.35v-1.11c1.75,0.14,4.15,0.28,7.01,0.28c2.86,0,5.81-0.46,8.85-0.46
			c5.81,0,11.25,2.86,11.25,9.13c0,5.49-4.98,8.07-9.96,8.07c-2.03,0-4.15-0.28-6.04-1.01v8.07c0,4.15,0.37,5.07,5.12,5.44v0.92
			c-2.63-0.09-5.26-0.18-7.88-0.18c-2.81,0-5.58,0.09-8.35,0.18v-0.92c4.57-0.37,4.93-1.29,4.93-5.44V258.14z M880.27,266.25
			c0.97,0.42,2.35,0.78,3.5,0.78c4.2,0,6.32-2.9,6.32-6.92c0-3.92-1.61-6.96-5.9-6.96c-1.43,0-2.67,0.28-3.92,0.74V266.25z"/>
		<path class="st3" d="M898.9,251.68c2.81,0.14,5.58,0.28,8.39,0.28c2.67,0,5.3-0.14,7.98-0.28v1.11c-4.24,0.14-5.26,1.43-5.26,5.07
			v19.55c0,2.4,1.38,3.41,5.12,3.6l-0.09,1.11c-2.67-0.14-5.35-0.18-8.02-0.18c-2.77,0-5.53,0.05-8.3,0.18v-1.11
			c3.73-0.18,5.12-1.2,5.12-3.6v-19.55c0-3.64-1.11-4.93-4.93-5.07V251.68z"/>
		<path class="st3" d="M915.41,281.01c3.46-0.37,4.24-2.12,5.49-5.03l9.04-21.07l-0.83-2.21c1.94-0.37,3.92-0.88,5.67-1.66
			l10.01,27.16c0.74,1.98,2.86,2.81,4.75,2.81v1.11c-2.4-0.14-6-0.18-8.35-0.18c-2.58,0-5.16,0.05-7.7,0.18v-1.11
			c3.18-0.23,4.7-0.97,4.7-2.58c0-1.15-1.06-3.55-1.52-4.84l-1.57-4.56h-9.18l-2.35,6.5c-0.28,0.83-0.74,1.57-0.74,2.77
			c0,1.52,2.4,2.44,4.06,2.72v1.11c-1.98-0.14-3.97-0.18-5.95-0.18c-1.84,0-3.69,0.05-5.53,0.18V281.01z M934.45,267.27l-3.78-10.79
			h-0.09l-4.01,10.79H934.45z"/>
		<path class="st3" d="M948.98,281.01c5.76-0.83,6.27-1.66,6.32-7.15l0.18-17.94c-1.61-1.89-4.1-2.49-6.41-3.14v-1.11
			c1.61,0.14,3.23,0.28,4.84,0.28c2.12,0,4.2-0.09,6.27-0.28c6.13,7.56,12.63,14.71,18.45,22.46h0.09c0-4.01,0-12.82-0.69-16.97
			c-0.51-3.14-2.4-3.92-5.35-4.38v-1.11c2.17,0.14,4.33,0.28,6.5,0.28c2.12,0,4.29-0.09,6.41-0.28v1.11c-4.8,0.28-5.3,1.94-5.3,8.67
			v21.17h-2.72c-5.53-8.53-16.14-20.66-20.34-25.18v15.63c0,6.27,0.6,7.1,6.04,7.93v1.11c-2.26-0.14-4.47-0.18-6.73-0.18
			c-2.54,0-5.03,0.05-7.56,0.18V281.01z"/>
		<path class="st3" d="M1022.85,266.94c0,10.01-7.29,15.91-17.71,15.91c-10.42,0-17.71-5.9-17.71-15.91
			c0-10.01,7.29-15.91,17.71-15.91C1015.56,251.03,1022.85,256.94,1022.85,266.94z M994.07,266.94c0,7.56,3.41,14.25,11.07,14.25
			c7.66,0,11.07-6.69,11.07-14.25s-3.41-14.25-11.07-14.25C997.48,252.69,994.07,259.38,994.07,266.94z"/>
		<path class="st3" d="M841.75,297.23c3.09,0.23,6.24,0.34,9.33,0.34c3.2,0,6.52-0.17,9.72-0.34v1.35
			c-2.47,0.34-4.94,0.62-4.94,3.54c0,2.19,5.11,12.75,9.66,24.27c4.94-12.58,9.16-21.74,9.16-24.38c0-2.7-3.32-3.43-5.11-3.43v-1.35
			c2.42,0.11,4.89,0.34,7.3,0.34c2.19,0,4.38-0.17,6.57-0.34v1.35c-2.92,0.56-3.93,1.41-5.11,3.76
			c-5.96,11.97-10.39,22.19-14.05,32.19h-3.09c-4.33-9.55-8.88-21.35-13.88-32.14c-1.07-2.3-2.64-3.37-5.56-3.82V297.23z"/>
		<path class="st3" d="M883.38,332.96c5.06-0.22,5.84-1.91,5.84-6.4V305.2c0-4.21-0.79-6.18-5.84-6.41v-1.57
			c3.82,0.11,7.7,0.34,11.52,0.34c7.19,0,14.44-0.17,21.86-0.34c-0.06,1.35-0.06,2.7-0.06,3.99c0,2.3,0,4.66,0.45,6.52l-1.24,0.22
			c-1.8-5.67-5.39-8.6-12.87-8.6h-6.29v13.65h2.92c3.93,0,7.7-1.8,8.93-7.02h1.12c-0.06,2.64-0.22,5.34-0.22,7.98
			c0,2.7,0.17,5.34,0.22,8.03h-1.12c-1.24-5.51-4.5-7.3-8.93-7.3h-2.92v16.69c1.8,0.5,3.99,0.79,6.69,0.79
			c7.3,0,13.37-3.43,17.47-10.73l1.07,0.79c-1.85,3.93-3.6,7.92-4.89,12.08c-5.79-0.17-11.57-0.22-17.42-0.22
			c-7.25,0-13.43,0.06-16.29,0.22V332.96z"/>
		<path class="st3" d="M923.1,297.34c2.75,0.11,5.28,0.22,8.6,0.22c3.99,0,8.03-0.34,12.42-0.34c7.75,0,12.64,4.83,12.64,10.9
			c0,5.22-3.6,7.92-8.37,8.99c3.2,5.11,9.49,15,16.24,16.18v1.01c-2.13-0.11-4.21-0.22-6.35-0.22c-1.85,0-3.76,0.11-5.62,0.22
			c-4.66-5-8.76-10.51-12.02-16.46c-1.29-0.17-3.2-0.39-3.99-1.01v9.72c0,5.06,0.45,5.96,5.67,6.4v1.35
			c-2.64-0.11-5.84-0.22-9.04-0.22c-3.43,0-6.8,0.11-10.17,0.22v-1.35c5.56-0.45,6.01-1.35,6.01-6.4V305.2
			c0-4.5-0.45-6.18-6.01-6.63V297.34z M936.64,314.64c1.18,0.56,2.42,0.84,3.76,0.84c4.94,0,8.26-2.87,8.26-8.15
			c0-4.49-2.98-8.09-7.64-8.09c-1.46,0-2.92,0.11-4.38,0.62V314.64z"/>
		<path class="st3" d="M963.72,332.73c5.45-0.45,5.9-1.57,5.9-6.63v-21.07c0-5.06-0.45-6.18-6.01-6.63v-1.35
			c2.36,0.22,4.78,0.51,7.14,0.51c4.66,0,9.27-0.56,16.18-0.56c10.22,0,21.07,6.85,21.07,20c0,12.13-9.21,17.53-19.78,17.53
			c-6.18,0-8.26-0.45-15.34-0.45c-3.93,0-6.8,0.11-9.16,0.22V332.73z M977.15,329.7c0,2.13,3.82,2.81,8.2,2.81
			c8.88,0,14.55-5.22,14.55-16.12c0-10-6.01-17.36-16.18-17.36c-2.25,0-4.44,0.34-6.57,0.9V329.7z"/>
		<path class="st3" d="M1011.36,332.96c5.06-0.22,5.84-1.91,5.84-6.4V305.2c0-4.21-0.79-6.18-5.84-6.41v-1.57
			c3.82,0.11,7.7,0.34,11.52,0.34c7.19,0,14.44-0.17,21.86-0.34c-0.06,1.35-0.06,2.7-0.06,3.99c0,2.3,0,4.66,0.45,6.52l-1.24,0.22
			c-1.8-5.67-5.39-8.6-12.87-8.6h-6.29v13.65h2.92c3.93,0,7.7-1.8,8.93-7.02h1.12c-0.06,2.64-0.22,5.34-0.22,7.98
			c0,2.7,0.17,5.34,0.22,8.03h-1.12c-1.24-5.51-4.5-7.3-8.93-7.3h-2.92v16.69c1.8,0.5,3.99,0.79,6.69,0.79
			c7.3,0,13.37-3.43,17.47-10.73l1.07,0.79c-1.85,3.93-3.6,7.92-4.89,12.08c-5.79-0.17-11.57-0.22-17.42-0.22
			c-7.25,0-13.43,0.06-16.29,0.22V332.96z"/>
	</g>
	<g>
		<path class="st4" d="M688.95,372.64H356.1c-12.27,0-22.22-9.95-22.22-22.22V238.71c0-12.27,9.95-22.22,22.22-22.22h332.85
			c12.27,0,22.22,9.95,22.22,22.22v111.71C711.17,362.69,701.22,372.64,688.95,372.64z"/>
	</g>
	<g>
		<path d="M449.21,262.53c-0.92-5.62-5.26-10.84-10.88-10.84c-7.42,0-9.82,7.33-9.82,13.23c0,7.61,4.15,13.23,12.22,13.23
			c5.81,0,9.31-3.78,11.53-7.1l1.11,1.15c-3.5,5.9-8.67,9.27-15.59,9.27c-9.18,0-15.91-6.22-15.91-15.91
			c0-9.54,6.92-15.91,16.78-15.91c1.71,0,4.24,0.42,6.41,0.83c2.21,0.42,4.06,0.83,4.38,0.83c0.28,0,0.37,0,0.51-0.05
			c0,1.2-0.09,2.35-0.09,3.55c0,2.58,0.18,5.16,0.51,7.7H449.21z"/>
		<path d="M454.14,279.63c4.15-0.18,4.8-1.57,4.8-5.26v-17.52c0-3.46-0.65-5.07-4.8-5.26v-1.29c3.14,0.09,6.32,0.28,9.45,0.28
			c5.9,0,11.85-0.14,17.94-0.28c-0.05,1.11-0.05,2.21-0.05,3.27c0,1.89,0,3.83,0.37,5.35l-1.01,0.18
			c-1.48-4.66-4.43-7.05-10.56-7.05h-5.16v11.21h2.4c3.23,0,6.32-1.48,7.33-5.76h0.92c-0.05,2.17-0.18,4.38-0.18,6.55
			c0,2.21,0.14,4.38,0.18,6.59h-0.92c-1.01-4.52-3.69-5.99-7.33-5.99h-2.4v13.69c1.48,0.42,3.27,0.65,5.49,0.65
			c5.99,0,10.97-2.81,14.34-8.81l0.88,0.65c-1.52,3.23-2.95,6.5-4.01,9.91c-4.75-0.14-9.5-0.18-14.29-0.18
			c-5.95,0-11.02,0.05-13.37,0.18V279.63z"/>
		<path d="M485.82,279.63c5.76-0.83,6.27-1.66,6.32-7.15l0.18-17.94c-1.61-1.89-4.1-2.49-6.41-3.14v-1.11
			c1.61,0.14,3.23,0.28,4.84,0.28c2.12,0,4.2-0.09,6.27-0.28c6.13,7.56,12.63,14.71,18.44,22.46h0.09c0-4.01,0-12.82-0.69-16.97
			c-0.51-3.14-2.4-3.92-5.35-4.38v-1.11c2.17,0.14,4.33,0.28,6.5,0.28c2.12,0,4.29-0.09,6.41-0.28v1.11c-4.8,0.28-5.3,1.94-5.3,8.67
			v21.17h-2.72c-5.53-8.53-16.14-20.66-20.34-25.18v15.63c0,6.27,0.6,7.1,6.04,7.93v1.11c-2.26-0.14-4.47-0.18-6.73-0.18
			c-2.54,0-5.03,0.05-7.56,0.18V279.63z"/>
		<path d="M550.46,259.94c-1.38-6.82-4.52-7.61-10.01-7.61v22.04c0,4.15,0.37,5.07,5.07,5.44v0.92c-2.58-0.09-5.21-0.18-7.84-0.18
			c-2.81,0-5.58,0.09-8.48,0.18v-0.92c4.7-0.37,5.07-1.29,5.07-5.44v-22.04c-5.49,0-8.62,0.78-10.01,7.61h-1.2
			c0.23-2.31,0.46-4.56,0.46-9.64c4.61,0.14,9.08,0.28,13.6,0.28c4.61,0,9.22-0.14,13.88-0.28c0,5.07,0.23,7.33,0.46,9.64H550.46z"
			/>
		<path d="M553.32,250.4c2.26,0.09,4.33,0.18,7.06,0.18c3.27,0,6.59-0.28,10.19-0.28c6.36,0,10.38,3.96,10.38,8.95
			c0,4.29-2.95,6.5-6.87,7.38c2.63,4.2,7.79,12.31,13.33,13.28v0.83c-1.75-0.09-3.46-0.18-5.21-0.18c-1.52,0-3.09,0.09-4.61,0.18
			c-3.83-4.1-7.19-8.62-9.87-13.51c-1.06-0.14-2.63-0.32-3.27-0.83v7.98c0,4.15,0.37,4.89,4.66,5.26v1.11
			c-2.17-0.09-4.8-0.18-7.42-0.18c-2.81,0-5.58,0.09-8.35,0.18v-1.11c4.57-0.37,4.93-1.11,4.93-5.26v-17.52
			c0-3.69-0.37-5.07-4.93-5.44V250.4z M564.44,264.6c0.97,0.46,1.98,0.69,3.09,0.69c4.06,0,6.78-2.35,6.78-6.69
			c0-3.69-2.44-6.64-6.27-6.64c-1.2,0-2.4,0.09-3.6,0.51V264.6z"/>
		<path d="M622.86,265.57c0,10.01-7.29,15.91-17.71,15.91c-10.42,0-17.71-5.9-17.71-15.91c0-10.01,7.29-15.91,17.71-15.91
			C615.57,249.66,622.86,255.56,622.86,265.57z M594.08,265.57c0,7.56,3.41,14.25,11.07,14.25c7.66,0,11.07-6.69,11.07-14.25
			s-3.41-14.25-11.07-14.25C597.5,251.32,594.08,258.01,594.08,265.57z"/>
		<path d="M398.73,331.58c5.45-0.45,5.9-1.57,5.9-6.63v-20.9c0-3.93-1.12-6.52-5.9-6.63v-1.24c6.85,0,13.88-0.34,20.9-0.34
			c5.96,0,12.53,3.54,12.53,10.22c0,3.6-2.7,6.35-5.9,7.47v0.11c4.55,0.96,8.82,4.78,8.82,9.66c0,7.47-5.96,9.94-13.71,9.94
			c-2.36,0-6.52-0.56-13.6-0.56c-4.72,0-6.74,0.11-9.05,0.22V331.58z M412.15,312.82c1.24,0.45,2.7,0.79,4.49,0.79
			c4.61,0,7.42-3.37,7.42-7.64c0-5.39-3.26-7.87-8.37-7.87c-1.18,0-2.3,0.11-3.54,0.17V312.82z M412.15,329.84
			c1.8,0.84,3.71,1.18,5.62,1.18c5.23,0,8.88-2.87,8.88-8.26c0-2.98-1.63-5.9-3.88-7.75c-1.57,0.39-3.2,0.62-4.78,0.62
			c-2.58,0-4.38-0.22-5.84-0.84V329.84z"/>
		<path d="M444.35,302.65c0-4.16-2.3-4.94-5.84-5.45v-1.35c3.37,0.23,6.8,0.34,10.17,0.34c3.48,0,6.91-0.11,10.39-0.34v1.35
			c-3.43,0.51-7.19,1.29-7.19,5.45v27.75c1.07,0.28,3.09,0.39,5.23,0.39c8.31,0,12.36-3.31,16.12-10.56l1.4,0.62
			c-1.91,3.88-3.43,7.92-4.44,12.08c-5.17-0.11-10.39-0.22-15.56-0.22c-5.39,0-10.84,0.11-16.24,0.22v-1.35
			c3.03,0,5.96-0.39,5.96-3.99V302.65z"/>
		<path d="M473.33,331.58c4.21-0.45,5.17-2.58,6.69-6.12l11.01-25.67l-1.01-2.7c2.36-0.45,4.78-1.07,6.91-2.02l12.19,33.09
			c0.9,2.42,3.48,3.43,5.79,3.43v1.35c-2.92-0.17-7.3-0.22-10.17-0.22c-3.15,0-6.29,0.06-9.38,0.22v-1.35
			c3.88-0.28,5.73-1.18,5.73-3.15c0-1.41-1.29-4.33-1.85-5.9l-1.91-5.56h-11.18l-2.87,7.92c-0.34,1.01-0.9,1.91-0.9,3.37
			c0,1.85,2.92,2.98,4.94,3.31v1.35c-2.42-0.17-4.83-0.22-7.25-0.22c-2.25,0-4.49,0.06-6.74,0.22V331.58z M496.54,314.84
			l-4.61-13.15h-0.11l-4.89,13.15H496.54z"/>
		<path d="M514.23,331.58c7.02-1.01,7.64-2.02,7.7-8.71l0.22-21.86c-1.97-2.3-5-3.03-7.81-3.82v-1.35c1.97,0.17,3.93,0.34,5.9,0.34
			c2.58,0,5.11-0.11,7.64-0.34c7.47,9.21,15.39,17.92,22.47,27.36h0.11c0-4.89,0-15.62-0.84-20.67c-0.62-3.82-2.92-4.78-6.52-5.34
			v-1.35c2.64,0.17,5.28,0.34,7.92,0.34c2.58,0,5.23-0.11,7.81-0.34v1.35c-5.84,0.34-6.46,2.36-6.46,10.56v25.79h-3.31
			c-6.74-10.39-19.66-25.17-24.78-30.68v19.05c0,7.64,0.73,8.65,7.36,9.66v1.35c-2.75-0.17-5.45-0.22-8.2-0.22
			c-3.09,0-6.12,0.06-9.21,0.22V331.58z"/>
		<path d="M594.46,310.74c-1.12-6.85-6.41-13.2-13.26-13.2c-9.04,0-11.97,8.93-11.97,16.12c0,9.27,5.06,16.12,14.89,16.12
			c7.08,0,11.35-4.61,14.05-8.65l1.35,1.4c-4.27,7.19-10.56,11.29-18.99,11.29c-11.18,0-19.38-7.58-19.38-19.38
			c0-11.63,8.43-19.38,20.45-19.38c2.08,0,5.17,0.51,7.81,1.01c2.7,0.5,4.94,1.01,5.34,1.01c0.34,0,0.45,0,0.62-0.06
			c0,1.46-0.11,2.87-0.11,4.33c0,3.15,0.22,6.29,0.62,9.38H594.46z"/>
		<path d="M644.8,314.45c0,12.19-8.88,19.38-21.57,19.38s-21.57-7.19-21.57-19.38c0-12.19,8.88-19.38,21.57-19.38
			S644.8,302.26,644.8,314.45z M609.74,314.45c0,9.21,4.16,17.36,13.48,17.36s13.48-8.15,13.48-17.36s-4.16-17.36-13.48-17.36
			S609.74,305.23,609.74,314.45z"/>
	</g>
</g>
</svg>
