<?xml version="1.0" encoding="utf-8"?>
<!-- Generator: Adobe Illustrator 28.2.0, SVG Export Plug-In . SVG Version: 6.00 Build 0)  -->
<svg version="1.1" id="Capa_1" xmlns="http://www.w3.org/2000/svg" xmlns:xlink="http://www.w3.org/1999/xlink" x="0px" y="0px"
	 viewBox="0 0 521.6 170" style="enable-background:new 0 0 521.6 170;" xml:space="preserve">
<style type="text/css">
	.st0{fill:#FF555C;}
	.st1{enable-background:new    ;}
	.st2{fill:#FDE8D6;}
</style>
<g>
	<g>
		<path class="st0" d="M501.5,170H20c-11.1,0-20-9-20-20V20C0,9,9,0,20,0h481.5c11.1,0,20.1,9,20.1,20V150
			C521.6,161.1,512.6,170,501.5,170z"/>
	</g>
	<g class="st1">
		<path class="st2" d="M66,73.1c5.8-0.5,6.3-1.7,6.3-7V43.7c0-5.4-0.5-6.6-6.4-7v-1.4c2.5,0.2,5.1,0.5,7.6,0.5
			c4.9,0,9.8-0.6,17.2-0.6c10.9,0,22.4,7.3,22.4,21.2c0,12.9-9.8,18.6-21,18.6c-6.6,0-8.8-0.5-16.3-0.5c-4.2,0-7.2,0.1-9.7,0.2V73.1
			z M80.3,69.9c0,2.3,4.1,3,8.7,3c9.4,0,15.4-5.5,15.4-17.1c0-10.6-6.4-18.4-17.2-18.4c-2.4,0-4.7,0.4-7,1V69.9z"/>
		<path class="st2" d="M116.6,73.4c5.4-0.2,6.2-2,6.2-6.8V43.9c0-4.5-0.8-6.6-6.2-6.8v-1.7c4.1,0.1,8.2,0.4,12.2,0.4
			c7.6,0,15.3-0.2,23.2-0.4c-0.1,1.4-0.1,2.9-0.1,4.2c0,2.4,0,5,0.5,6.9l-1.3,0.2c-1.9-6-5.7-9.1-13.7-9.1h-6.7v14.5h3.1
			c4.2,0,8.2-1.9,9.5-7.5h1.2c-0.1,2.8-0.2,5.7-0.2,8.5c0,2.9,0.2,5.7,0.2,8.5h-1.2c-1.3-5.8-4.8-7.8-9.5-7.8h-3.1v17.7
			c1.9,0.5,4.2,0.8,7.1,0.8c7.8,0,14.2-3.6,18.5-11.4l1.1,0.8c-2,4.2-3.8,8.4-5.2,12.8c-6.1-0.2-12.3-0.2-18.5-0.2
			c-7.7,0-14.3,0.1-17.3,0.2V73.4z"/>
		<path class="st2" d="M187.6,47.3c-1.7-5.8-7.4-10.6-13.1-10.6c-3.6,0-6.4,1.9-6.4,5.6c0,8.6,23,7.6,23,22.1
			c0,6.9-5.5,11.3-14.2,11.3c-4,0-7.9-1.7-11.9-1.7c-0.6,0-2.3,0.5-3,0.8c-0.6-4.4-1.3-9-2.4-13.6h1.3c1.7,6,8.5,11.9,14.6,11.9
			c5.2,0,8.8-1.4,8.8-6.1c0-9.7-23.3-8.8-23.3-21.8c0-7.4,4.5-10.7,13.7-10.7c4.8,0,8.9,1.8,11.9,1.8h2.1c-0.1,1.3-0.2,2.5-0.2,3.8
			c0,2.3,0.2,4.8,0.4,7.2H187.6z"/>
		<path class="st2" d="M231.7,51.3c-1.2-7.3-6.8-14-14.1-14c-9.6,0-12.7,9.5-12.7,17.1c0,9.8,5.4,17.1,15.8,17.1
			c7.5,0,12-4.9,14.9-9.2l1.4,1.5c-4.5,7.6-11.2,12-20.2,12c-11.9,0-20.6-8-20.6-20.6c0-12.3,8.9-20.6,21.7-20.6
			c2.2,0,5.5,0.5,8.3,1.1c2.9,0.5,5.2,1.1,5.7,1.1c0.4,0,0.5,0,0.7-0.1c0,1.6-0.1,3-0.1,4.6c0,3.3,0.2,6.7,0.7,10H231.7z"/>
		<path class="st2" d="M235.6,73.4c4.5-0.5,5.5-2.7,7.1-6.5l11.7-27.3l-1.1-2.9c2.5-0.5,5.1-1.1,7.3-2.1l12.9,35.1
			c1,2.6,3.7,3.6,6.1,3.6v1.4c-3.1-0.2-7.8-0.2-10.8-0.2c-3.3,0-6.7,0.1-10,0.2v-1.4c4.1-0.3,6.1-1.3,6.1-3.3c0-1.5-1.4-4.6-2-6.3
			l-2-5.9h-11.9l-3,8.4c-0.4,1.1-1,2-1,3.6c0,2,3.1,3.2,5.2,3.5v1.4c-2.6-0.2-5.1-0.2-7.7-0.2c-2.4,0-4.8,0.1-7.2,0.2V73.4z
			 M260.2,55.6l-4.9-14h-0.1l-5.2,14H260.2z"/>
		<path class="st2" d="M280.2,35.6c2.9,0.1,5.6,0.2,9.1,0.2c4.2,0,8.5-0.4,13.2-0.4c8.2,0,13.4,5.1,13.4,11.6c0,5.5-3.8,8.4-8.9,9.5
			c3.4,5.4,10.1,15.9,17.2,17.2v1.1c-2.3-0.1-4.5-0.2-6.7-0.2c-2,0-4,0.1-6,0.2c-4.9-5.3-9.3-11.2-12.8-17.5
			c-1.4-0.2-3.4-0.4-4.2-1.1v10.3c0,5.4,0.5,6.3,6,6.8v1.4c-2.8-0.1-6.2-0.2-9.6-0.2c-3.6,0-7.2,0.1-10.8,0.2v-1.4
			c5.9-0.5,6.4-1.4,6.4-6.8V43.9c0-4.8-0.5-6.6-6.4-7V35.6z M294.6,53.9c1.3,0.6,2.6,0.9,4,0.9c5.2,0,8.8-3,8.8-8.6
			c0-4.8-3.2-8.6-8.1-8.6c-1.6,0-3.1,0.1-4.7,0.7V53.9z"/>
		<path class="st2" d="M361.3,48.5c-2-6.1-5.9-11.2-13.8-11.2c-10,0-14.4,8.8-14.4,17.9c0,9.2,4.4,17.9,14.4,17.9
			c3.1,0,6.7-1.4,8.7-3.6v-6c0-3.3-1.4-4.2-6.4-4.9v-1.4c2.7,0.2,5.9,0.3,9.8,0.3c3.8,0,7.1-0.1,9.7-0.3v1.4c-3.5,0.2-5.1,1.8-5.1,4
			v9.1c-6.2,2-10.7,4-16.8,4c-13.5,0-22.9-7.6-22.9-20.6c0-12.9,9.4-20.6,22.9-20.6c4.8,0,9.4,1.4,14,2.2c0,4.2,0.4,7.5,1.5,11.6
			H361.3z"/>
		<path class="st2" d="M368.1,73.4c4.5-0.5,5.5-2.7,7.1-6.5l11.7-27.3l-1.1-2.9c2.5-0.5,5.1-1.1,7.3-2.1l12.9,35.1
			c1,2.6,3.7,3.6,6.1,3.6v1.4c-3.1-0.2-7.8-0.2-10.8-0.2c-3.3,0-6.7,0.1-10,0.2v-1.4c4.1-0.3,6.1-1.3,6.1-3.3c0-1.5-1.4-4.6-2-6.3
			l-2-5.9h-11.9l-3,8.4c-0.4,1.1-1,2-1,3.6c0,2,3.1,3.2,5.2,3.5v1.4c-2.6-0.2-5.1-0.2-7.7-0.2c-2.4,0-4.8,0.1-7.2,0.2V73.4z
			 M392.7,55.6l-4.9-14h-0.1l-5.2,14H392.7z"/>
		<path class="st2" d="M412.7,35.6c2.9,0.1,5.6,0.2,9.1,0.2c4.2,0,8.5-0.4,13.2-0.4c8.2,0,13.4,5.1,13.4,11.6c0,5.5-3.8,8.4-8.9,9.5
			c3.4,5.4,10.1,15.9,17.2,17.2v1.1c-2.3-0.1-4.5-0.2-6.7-0.2c-2,0-4,0.1-6,0.2c-4.9-5.3-9.3-11.2-12.8-17.5
			c-1.4-0.2-3.4-0.4-4.2-1.1v10.3c0,5.4,0.5,6.3,6,6.8v1.4c-2.8-0.1-6.2-0.2-9.6-0.2c-3.6,0-7.2,0.1-10.8,0.2v-1.4
			c5.9-0.5,6.4-1.4,6.4-6.8V43.9c0-4.8-0.5-6.6-6.4-7V35.6z M427.1,53.9c1.3,0.6,2.6,0.9,4,0.9c5.2,0,8.8-3,8.8-8.6
			c0-4.8-3.2-8.6-8.1-8.6c-1.5,0-3.1,0.1-4.7,0.7V53.9z"/>
	</g>
	<g class="st1">
		<path class="st2" d="M170.9,90.9c2.9,0.1,5.6,0.2,9.1,0.2c4.2,0,8.5-0.4,13.2-0.4c8.2,0,13.4,5.1,13.4,11.6c0,5.5-3.8,8.4-8.9,9.5
			c3.4,5.4,10.1,15.9,17.2,17.2v1.1c-2.3-0.1-4.5-0.2-6.7-0.2c-2,0-4,0.1-6,0.2c-4.9-5.3-9.3-11.2-12.8-17.5
			c-1.4-0.2-3.4-0.4-4.2-1.1v10.3c0,5.4,0.5,6.3,6,6.8v1.4c-2.8-0.1-6.2-0.2-9.6-0.2c-3.6,0-7.2,0.1-10.8,0.2v-1.4
			c5.9-0.5,6.4-1.4,6.4-6.8V99.3c0-4.8-0.5-6.6-6.4-7V90.9z M185.2,109.3c1.3,0.6,2.6,0.9,4,0.9c5.2,0,8.8-3,8.8-8.6
			c0-4.8-3.2-8.6-8.1-8.6c-1.5,0-3.1,0.1-4.7,0.7V109.3z"/>
		<path class="st2" d="M260.8,110.5c0,12.9-9.4,20.6-22.9,20.6s-22.9-7.6-22.9-20.6c0-12.9,9.4-20.6,22.9-20.6
			S260.8,97.6,260.8,110.5z M223.6,110.5c0,9.8,4.4,18.4,14.3,18.4s14.3-8.6,14.3-18.4c0-9.8-4.4-18.4-14.3-18.4
			S223.6,100.8,223.6,110.5z"/>
		<path class="st2" d="M285.9,97.2c0-3.8-3.2-5.1-8-5v-1.4c4,0.2,8,0.4,12,0.4c3.1,0,6.1-0.2,9.2-0.4v1.4c-3.8,0.2-5.2,1.1-5.2,4.4
			v23.9c0,4.3-4.5,9.9-15.4,9.9c-5.4,0-13.5-2.4-13.5-8.9c0-2.3,1.5-4.7,4.2-4.7c2.7,0,4.6,1.6,4.6,4.4c0,1-0.3,1.9-0.9,2.6
			c1.2,2.7,3.5,4.7,6.6,4.7c4.8,0,6.4-5.2,6.4-9.2V97.2z"/>
		<path class="st2" d="M349.2,110.5c0,12.9-9.4,20.6-22.9,20.6s-22.9-7.6-22.9-20.6c0-12.9,9.4-20.6,22.9-20.6
			S349.2,97.6,349.2,110.5z M311.9,110.5c0,9.8,4.4,18.4,14.3,18.4s14.3-8.6,14.3-18.4c0-9.8-4.4-18.4-14.3-18.4
			S311.9,100.8,311.9,110.5z"/>
	</g>
</g>
</svg>
