<?xml version="1.0" encoding="utf-8"?>
<!-- Generator: Adobe Illustrator 28.2.0, SVG Export Plug-In . SVG Version: 6.00 Build 0)  -->
<svg version="1.1" id="Capa_1" xmlns="http://www.w3.org/2000/svg" xmlns:xlink="http://www.w3.org/1999/xlink" x="0px" y="0px"
	 viewBox="0 0 1080 1080" style="enable-background:new 0 0 1080 1080;" xml:space="preserve">
<style type="text/css">
	.st0{fill:#334022;}
</style>
<g>
	<g>
		<path class="st0" d="M154.06,353.12h25.13c33.83,0,66.21-15.47,76.84-60.41l9.67,0c-0.48,22.71-1.93,45.91-1.93,68.63
			c0,23.2,1.45,45.91,1.93,69.11h-9.67c-10.63-47.36-29.48-62.83-76.84-62.83h-25.13v111.64c0,31.41,7.73,43.01,57.03,43.5l0,13.53
			c-30.45-0.97-61.38-1.93-91.83-1.93c-26.58,0-53.65,0.97-80.23,1.93v-13.53c42.53-0.48,50.26-12.08,50.26-43.5V285.94
			c0-36.25-6.77-53.16-50.26-55.1v-13.53c32.86,0.97,66.21,2.9,99.07,2.9c61.86,0,124.21-1.45,186.07-2.9
			c-0.48,11.6-0.48,23.2-0.48,34.31c0,19.81,0,40.11,2.9,59.93h-9.67c-14.02-54.61-45.91-75.88-108.74-75.88h-54.13V353.12z"/>
		<path class="st0" d="M309.2,524.69c36.25-3.87,44.46-22.23,57.51-52.68l94.73-220.86l-8.7-23.2c20.3-3.87,41.08-9.18,59.44-17.4
			l104.87,284.66c7.73,20.78,29.96,29.48,49.78,29.48l0,11.6c-25.13-1.45-62.83-1.93-87.47-1.93c-27.06,0-54.13,0.48-80.71,1.93
			v-11.6c33.35-2.42,49.3-10.15,49.3-27.06c0-12.08-11.12-37.21-15.95-50.75l-16.43-47.85h-96.18l-24.65,68.14
			c-2.9,8.7-7.73,16.43-7.73,29c0,15.95,25.13,25.62,42.53,28.51l0,11.6c-20.78-1.45-41.56-1.93-62.34-1.93
			c-19.33,0-38.66,0.48-58,1.93V524.69z M508.8,380.67l-39.63-113.09h-0.97l-42.05,113.09H508.8z"/>
		<path class="st0" d="M661.03,524.69c60.41-8.7,65.73-17.4,66.21-74.91l1.93-188c-16.92-19.81-43.01-26.1-67.18-32.86v-11.6
			c16.91,1.45,33.83,2.9,50.74,2.9c22.23,0,43.98-0.97,65.73-2.9c64.28,79.26,132.42,154.17,193.32,235.36h0.97
			c0-42.05,0-134.35-7.25-177.85c-5.32-32.86-25.13-41.08-56.06-45.91l0-11.6c22.71,1.45,45.43,2.9,68.14,2.9
			c22.23,0,44.95-0.97,67.18-2.9v11.6c-50.26,2.9-55.58,20.3-55.58,90.86V541.6h-28.51c-58-89.41-169.15-216.51-213.13-263.88
			v163.84c0,65.73,6.28,74.43,63.31,83.13v11.6c-23.68-1.45-46.88-1.93-70.56-1.93c-26.58,0-52.68,0.48-79.26,1.93V524.69z"/>
	</g>
	<g>
		<path class="st0" d="M58.97,612.12c0-17.93-3.39-21.52-21.32-23.11v-4.78c7.57,0.6,17.93,1.2,30.28,1.2s25.1-1.99,38.25-1.99
			c25.1,0,48.61,12.35,48.61,39.45c0,23.71-21.52,34.87-43.03,34.87c-8.77,0-17.93-1.2-26.1-4.38v34.87
			c0,17.93,1.59,21.92,22.12,23.51v3.98c-11.36-0.4-22.71-0.8-34.07-0.8c-12.15,0-24.11,0.4-36.06,0.8v-3.98
			c19.72-1.59,21.32-5.58,21.32-23.51V612.12z M85.66,647.19c4.18,1.79,10.16,3.39,15.14,3.39c18.13,0,27.29-12.55,27.29-29.89
			c0-16.93-6.97-30.08-25.5-30.08c-6.18,0-11.56,1.2-16.94,3.19V647.19z"/>
		<path class="st0" d="M165.15,584.63c9.76,0.4,18.73,0.8,30.48,0.8c14.15,0,28.49-1.2,44.03-1.2c27.49,0,44.83,17.13,44.83,38.65
			c0,18.53-12.75,28.09-29.69,31.88c11.36,18.13,33.67,53.2,57.58,57.38v3.59c-7.57-0.4-14.94-0.8-22.51-0.8
			c-6.57,0-13.35,0.4-19.92,0.8c-16.54-17.73-31.08-37.26-42.64-58.38c-4.58-0.6-11.36-1.39-14.15-3.59v34.47
			c0,17.93,1.59,21.12,20.12,22.71v4.78c-9.36-0.4-20.72-0.8-32.08-0.8c-12.15,0-24.11,0.4-36.06,0.8v-4.78
			c19.72-1.59,21.32-4.78,21.32-22.71v-75.71c0-15.94-1.59-21.92-21.32-23.51V584.63z M213.17,645.99
			c4.18,1.99,8.57,2.99,13.35,2.99c17.53,0,29.29-10.16,29.29-28.89c0-15.94-10.56-28.69-27.1-28.69c-5.18,0-10.36,0.4-15.54,2.19
			V645.99z"/>
		<path class="st0" d="M465.59,650.17c0,43.23-31.48,68.74-76.51,68.74s-76.51-25.5-76.51-68.74c0-43.23,31.48-68.74,76.51-68.74
			S465.59,606.94,465.59,650.17z M341.27,650.17c0,32.67,14.74,61.56,47.82,61.56s47.82-28.89,47.82-61.56
			c0-32.67-14.74-61.56-47.82-61.56S341.27,617.5,341.27,650.17z"/>
		<path class="st0" d="M549.46,605.55c0-12.55-10.56-16.93-26.7-16.54v-4.78c13.35,0.6,26.7,1.2,40.05,1.2
			c10.36,0,20.52-0.6,30.88-1.2v4.78c-12.55,0.6-17.53,3.79-17.53,14.54v79.89c0,14.34-14.94,33.07-51.6,33.07
			c-17.93,0-45.03-7.97-45.03-29.88c0-7.57,4.98-15.54,14.15-15.54c8.97,0,15.34,5.18,15.34,14.54c0,3.19-1,6.38-2.99,8.77
			c3.98,9.17,11.56,15.74,21.92,15.74c16.14,0,21.52-17.53,21.52-30.88V605.55z"/>
		<path class="st0" d="M603.65,710.94c17.93-0.8,20.72-6.77,20.72-22.71v-75.71c0-14.94-2.79-21.92-20.72-22.71v-5.58
			c13.55,0.4,27.29,1.2,40.84,1.2c25.5,0,51.2-0.6,77.5-1.2c-0.2,4.78-0.2,9.56-0.2,14.15c0,8.17,0,16.54,1.59,23.11l-4.38,0.8
			c-6.38-20.12-19.12-30.48-45.62-30.48h-22.31v48.41h10.36c13.95,0,27.29-6.38,31.68-24.9h3.99c-0.2,9.36-0.8,18.93-0.8,28.29
			c0,9.56,0.6,18.93,0.8,28.49h-3.99c-4.38-19.53-15.94-25.9-31.68-25.9h-10.36v59.17c6.38,1.79,14.14,2.79,23.71,2.79
			c25.9,0,47.42-12.15,61.96-38.05l3.79,2.79c-6.57,13.95-12.75,28.09-17.33,42.83c-20.52-0.6-41.04-0.8-61.76-0.8
			c-25.7,0-47.62,0.2-57.78,0.8V710.94z"/>
		<path class="st0" d="M866.43,637.03c-3.98-24.31-22.71-46.82-47.02-46.82c-32.08,0-42.44,31.68-42.44,57.18
			c0,32.87,17.93,57.18,52.8,57.18c25.1,0,40.25-16.34,49.81-30.68l4.78,4.98c-15.14,25.5-37.46,40.05-67.34,40.05
			c-39.65,0-68.74-26.9-68.74-68.74c0-41.24,29.88-68.74,72.52-68.74c7.37,0,18.33,1.79,27.69,3.59c9.56,1.79,17.53,3.59,18.93,3.59
			c1.2,0,1.59,0,2.19-0.2c0,5.18-0.4,10.16-0.4,15.34c0,11.16,0.8,22.31,2.19,33.27H866.43z"/>
		<path class="st0" d="M1005.09,625.87c-5.98-29.49-19.53-32.87-43.23-32.87v95.23c0,17.93,1.59,21.92,21.92,23.51v3.98
			c-11.16-0.4-22.51-0.8-33.87-0.8c-12.15,0-24.11,0.4-36.66,0.8v-3.98c20.32-1.59,21.92-5.58,21.92-23.51v-95.23
			c-23.71,0-37.26,3.39-43.23,32.87h-5.18c1-9.96,1.99-19.72,1.99-41.64c19.92,0.6,39.25,1.2,58.78,1.2c19.92,0,39.85-0.6,59.97-1.2
			c0,21.92,1,31.68,1.99,41.64H1005.09z"/>
	</g>
	<g>
		<path class="st0" d="M89.42,808.57l3.97-27.79h6.62l-3.84,27.79h12.44l0.4,5.82H95.37l-2.65,18.79h12.44l0.4,5.82H91.93
			l-3.97,27.8h-6.62l3.97-27.8H67.97L64,866.81h-6.62l3.84-27.8h-13.5l-0.4-5.82h14.69l2.65-18.79h-13.5l-0.4-5.82h14.69l3.97-27.79
			h6.62l-3.97,27.79H89.42z M71.42,814.39l-2.78,18.79h17.34l2.78-18.79H71.42z"/>
		<path class="st0" d="M134.82,845.89c0,3.71,0.11,6.77,0.33,9.2c0.22,2.43,0.79,4.39,1.72,5.89c0.93,1.5,2.32,2.6,4.17,3.31
			c1.85,0.71,4.41,1.19,7.68,1.46v1.59c-3.35-0.18-6.71-0.31-10.06-0.4c-3.35-0.09-6.71-0.13-10.06-0.13
			c-3.27,0-6.49,0.04-9.66,0.13c-3.18,0.09-6.35,0.22-9.53,0.4v-1.59c3.18-0.26,5.65-0.75,7.41-1.46c1.76-0.71,3.11-1.81,4.04-3.31
			c0.93-1.5,1.5-3.46,1.72-5.89c0.22-2.43,0.33-5.49,0.33-9.2v-44.21c0-3.71-0.11-6.77-0.33-9.2c-0.22-2.43-0.79-4.39-1.72-5.89
			c-0.93-1.5-2.32-2.6-4.17-3.31c-1.85-0.71-4.37-1.19-7.54-1.46v-1.59c3.62,0.18,7.21,0.31,10.79,0.4
			c3.57,0.09,7.17,0.13,10.79,0.13c2.91,0,5.82-0.04,8.74-0.13c2.91-0.09,5.78-0.22,8.6-0.4v1.59c-3.09,0.26-5.52,0.75-7.28,1.46
			c-1.77,0.71-3.09,1.81-3.97,3.31c-0.88,1.5-1.44,3.46-1.65,5.89c-0.22,2.43-0.33,5.49-0.33,9.2v22.37l20.12-16.41
			c1.85-1.5,3.62-3.07,5.29-4.7c1.67-1.63,3.15-3.29,4.43-4.96c1.28-1.67,2.29-3.26,3.04-4.76c0.75-1.5,1.13-2.87,1.13-4.1
			c0-1.32-0.29-2.45-0.86-3.38c-0.58-0.93-1.32-1.67-2.25-2.25c-0.93-0.57-1.96-0.99-3.11-1.26c-1.15-0.26-2.3-0.4-3.44-0.4v-1.59
			c3.35,0.18,6.64,0.31,9.86,0.4c3.22,0.09,6.51,0.13,9.86,0.13c3.53,0,7.04-0.04,10.52-0.13c3.48-0.09,6.99-0.22,10.52-0.4v1.59
			c-2.3,0.26-4.43,0.71-6.42,1.32c-1.99,0.62-4.02,1.52-6.09,2.71c-2.07,1.19-4.3,2.69-6.68,4.5c-2.38,1.81-5.08,4.04-8.07,6.68
			l-16.41,14.03L183,850.39c1.32,1.85,2.76,3.69,4.3,5.49c1.54,1.81,3.22,3.42,5.03,4.83c1.81,1.41,3.73,2.58,5.76,3.51
			c2.03,0.93,4.19,1.44,6.49,1.52v1.59c-3.79-0.18-7.59-0.31-11.38-0.4c-3.79-0.09-7.59-0.13-11.38-0.13
			c-3.44,0-6.86,0.04-10.26,0.13c-3.4,0.09-6.82,0.22-10.26,0.4v-1.59c3.18-0.18,5.93-0.84,8.27-1.99c2.34-1.15,3.51-3.18,3.51-6.09
			c0-1.23-0.49-2.56-1.46-3.97c-0.97-1.41-2.34-3.4-4.1-5.96l-19.99-29.38l-12.71,9.93V845.89z"/>
		<path class="st0" d="M209.87,839.01c0,4.59,0.6,8.38,1.79,11.38c1.19,3,2.69,5.38,4.5,7.15c1.81,1.77,3.75,3,5.82,3.71
			c2.07,0.71,3.99,1.06,5.76,1.06c3.71,0,7.06-0.6,10.06-1.79c3-1.19,5.78-3.07,8.34-5.62l2.25,2.12
			c-3.62,3.88-7.33,6.84-11.12,8.87c-3.79,2.03-8.34,3.04-13.63,3.04c-3.8,0-7.19-0.75-10.19-2.25c-3-1.5-5.56-3.48-7.68-5.96
			c-2.12-2.47-3.73-5.29-4.83-8.47c-1.1-3.18-1.65-6.44-1.65-9.79c0-3.35,0.55-6.62,1.65-9.79c1.1-3.18,2.71-6,4.83-8.47
			c2.12-2.47,4.68-4.46,7.68-5.96c3-1.5,6.4-2.25,10.19-2.25c6.97,0,12.57,1.92,16.81,5.76c4.24,3.84,6.84,9.6,7.81,17.27H209.87z
			 M235.68,835.04c-0.27-2.38-0.62-4.52-1.06-6.42c-0.44-1.9-1.15-3.48-2.12-4.76c-0.97-1.28-2.25-2.25-3.84-2.91
			c-1.59-0.66-3.62-0.99-6.09-0.99c-1.85,0-3.55,0.46-5.1,1.39c-1.54,0.93-2.87,2.12-3.97,3.57c-1.1,1.46-1.94,3.07-2.51,4.83
			c-0.58,1.77-0.86,3.53-0.86,5.29H235.68z"/>
		<path class="st0" d="M255.4,828.16c0.62-2.73,1.57-4.92,2.85-6.55c1.28-1.63,2.78-2.87,4.5-3.71c1.72-0.84,3.64-1.37,5.76-1.59
			c2.12-0.22,4.37-0.33,6.75-0.33c2.29,0,4.57,0.24,6.82,0.73c2.25,0.49,4.28,1.3,6.09,2.45c1.81,1.15,3.26,2.67,4.37,4.57
			c1.1,1.9,1.65,4.22,1.65,6.95v24.49c0,1.68,0.44,3.16,1.32,4.43c0.88,1.28,2.25,1.92,4.1,1.92c1.76,0,3.33-0.51,4.7-1.52
			c1.37-1.01,2.67-2.01,3.9-2.98l1.32,1.46c-0.97,0.88-2.03,1.92-3.18,3.11c-1.15,1.19-2.36,2.34-3.64,3.44
			c-1.28,1.1-2.63,2.03-4.04,2.78c-1.41,0.75-2.78,1.12-4.1,1.12c-0.97,0-1.92-0.29-2.85-0.86c-0.93-0.58-1.85-1.26-2.78-2.05
			c-0.93-0.79-1.79-1.63-2.58-2.51c-0.79-0.88-1.5-1.63-2.12-2.25c-2.82,1.94-6,3.71-9.53,5.29c-3.53,1.59-6.97,2.38-10.32,2.38
			c-1.85,0-3.64-0.31-5.36-0.93c-1.72-0.62-3.24-1.5-4.57-2.65c-1.32-1.15-2.38-2.51-3.18-4.1c-0.79-1.59-1.19-3.4-1.19-5.43
			c0-3.62,0.99-6.51,2.98-8.67c1.99-2.16,4.61-3.84,7.88-5.03c3.26-1.19,6.95-1.96,11.05-2.32c4.1-0.35,8.23-0.57,12.38-0.66v-10.06
			c0-3.26-1.02-5.78-3.04-7.54c-2.03-1.76-4.59-2.65-7.68-2.65c-2.3,0-4.1,1.15-5.43,3.44c-1.32,2.3-1.99,4.9-1.99,7.81
			L255.4,828.16z M284.12,844.31c-2.91-0.79-5.87-1.19-8.87-1.19c-1.77,0-3.49,0.2-5.16,0.6c-1.68,0.4-3.18,1.04-4.5,1.92
			c-1.32,0.88-2.38,2.01-3.18,3.38c-0.79,1.37-1.19,3.02-1.19,4.96c0,3,1.04,5.14,3.11,6.42c2.07,1.28,4.39,1.92,6.95,1.92
			c2.82,0,5.4-0.57,7.74-1.72c2.34-1.15,4.04-2.12,5.1-2.91V844.31z"/>
		<path class="st0" d="M304.77,819.69l19.32-2.91v7.01c2.38-1.85,5.12-3.62,8.21-5.29c3.09-1.68,6.04-2.51,8.87-2.51
			c2.47,0,4.83,0.31,7.08,0.93c2.25,0.62,4.26,1.63,6.02,3.04c1.76,1.41,3.18,3.31,4.24,5.69c1.06,2.38,1.59,5.34,1.59,8.87v23.29
			c0,2.91,0.79,4.83,2.38,5.76c1.59,0.93,3.88,1.66,6.88,2.18v1.59c-2.56-0.18-5.29-0.31-8.21-0.4c-2.91-0.09-5.87-0.13-8.87-0.13
			c-2.03,0-3.99,0.04-5.89,0.13c-1.9,0.09-3.73,0.22-5.49,0.4v-1.59c2.82-0.53,5.01-1.26,6.55-2.18c1.54-0.93,2.32-2.85,2.32-5.76
			V836.5c0-4.5-0.97-7.99-2.91-10.46c-1.94-2.47-4.99-3.71-9.13-3.71c-1.5,0-3.04,0.22-4.63,0.66c-1.59,0.44-3.04,1.04-4.37,1.79
			c-1.32,0.75-2.43,1.57-3.31,2.45c-0.88,0.88-1.32,1.72-1.32,2.51v28.06c0,2.91,0.84,4.83,2.51,5.76c1.68,0.93,4.19,1.66,7.54,2.18
			v1.59c-3-0.18-5.98-0.31-8.93-0.4c-2.96-0.09-5.94-0.13-8.93-0.13c-2.03,0-3.99,0.04-5.89,0.13c-1.9,0.09-3.86,0.22-5.89,0.4
			v-1.59c3-0.53,5.29-1.26,6.88-2.18c1.59-0.93,2.38-2.85,2.38-5.76V827.1c0-2.65-0.91-4.28-2.71-4.9c-1.81-0.62-3.9-0.93-6.29-0.93
			V819.69z"/>
		<path class="st0" d="M381.14,839.01c0,4.59,0.6,8.38,1.79,11.38c1.19,3,2.69,5.38,4.5,7.15c1.81,1.77,3.75,3,5.82,3.71
			c2.07,0.71,3.99,1.06,5.76,1.06c3.71,0,7.06-0.6,10.06-1.79c3-1.19,5.78-3.07,8.34-5.62l2.25,2.12
			c-3.62,3.88-7.33,6.84-11.12,8.87c-3.79,2.03-8.34,3.04-13.63,3.04c-3.8,0-7.19-0.75-10.19-2.25c-3-1.5-5.56-3.48-7.68-5.96
			c-2.12-2.47-3.73-5.29-4.83-8.47c-1.1-3.18-1.65-6.44-1.65-9.79c0-3.35,0.55-6.62,1.65-9.79c1.1-3.18,2.71-6,4.83-8.47
			c2.12-2.47,4.68-4.46,7.68-5.96c3-1.5,6.4-2.25,10.19-2.25c6.97,0,12.57,1.92,16.81,5.76c4.24,3.84,6.84,9.6,7.81,17.27H381.14z
			 M406.95,835.04c-0.27-2.38-0.62-4.52-1.06-6.42c-0.44-1.9-1.15-3.48-2.12-4.76c-0.97-1.28-2.25-2.25-3.84-2.91
			c-1.59-0.66-3.62-0.99-6.09-0.99c-1.85,0-3.55,0.46-5.1,1.39c-1.54,0.93-2.87,2.12-3.97,3.57c-1.1,1.46-1.94,3.07-2.51,4.83
			c-0.58,1.77-0.86,3.53-0.86,5.29H406.95z"/>
		<path class="st0" d="M467.31,781.83c-4.24,0.62-7.54,1.3-9.93,2.05c-2.38,0.75-4.13,1.74-5.23,2.98c-1.1,1.24-1.79,2.76-2.05,4.57
			c-0.26,1.81-0.4,4.04-0.4,6.68v63.53c2.38,0.44,4.7,0.84,6.95,1.19c2.25,0.35,4.52,0.53,6.82,0.53c5.21,0,9.75-0.53,13.63-1.59
			c3.88-1.06,7.37-2.65,10.46-4.77c3.09-2.12,5.93-4.79,8.54-8.01c2.6-3.22,5.23-6.99,7.88-11.32h1.99l-10.19,29.65
			c-3.18-0.18-6.38-0.31-9.6-0.4c-3.22-0.09-6.42-0.13-9.6-0.13h-38.91c-2.21,0-4.41,0.04-6.62,0.13c-2.21,0.09-4.41,0.22-6.62,0.4
			v-1.59c2.91-0.26,5.23-0.71,6.95-1.32c1.72-0.62,3.06-1.39,4.04-2.32c0.97-0.93,1.61-2.05,1.92-3.38
			c0.31-1.32,0.46-2.87,0.46-4.63v-52.42c0-3.71-0.11-6.77-0.33-9.2c-0.22-2.43-0.77-4.39-1.65-5.89c-0.88-1.5-2.21-2.6-3.97-3.31
			c-1.77-0.71-4.24-1.19-7.41-1.46v-1.59c3.44,0.18,6.86,0.31,10.26,0.4c3.4,0.09,6.82,0.13,10.26,0.13c3.71,0,7.43-0.04,11.18-0.13
			c3.75-0.09,7.48-0.22,11.18-0.4V781.83z"/>
		<path class="st0" d="M505.82,828.16c0.62-2.73,1.57-4.92,2.85-6.55c1.28-1.63,2.78-2.87,4.5-3.71c1.72-0.84,3.64-1.37,5.76-1.59
			c2.12-0.22,4.37-0.33,6.75-0.33c2.29,0,4.57,0.24,6.82,0.73c2.25,0.49,4.28,1.3,6.09,2.45c1.81,1.15,3.26,2.67,4.37,4.57
			c1.1,1.9,1.66,4.22,1.66,6.95v24.49c0,1.68,0.44,3.16,1.32,4.43c0.88,1.28,2.25,1.92,4.1,1.92c1.76,0,3.33-0.51,4.7-1.52
			c1.37-1.01,2.67-2.01,3.9-2.98l1.32,1.46c-0.97,0.88-2.03,1.92-3.18,3.11s-2.36,2.34-3.64,3.44c-1.28,1.1-2.63,2.03-4.04,2.78
			c-1.41,0.75-2.78,1.12-4.1,1.12c-0.97,0-1.92-0.29-2.85-0.86c-0.93-0.58-1.85-1.26-2.78-2.05c-0.93-0.79-1.79-1.63-2.58-2.51
			c-0.79-0.88-1.5-1.63-2.12-2.25c-2.82,1.94-6,3.71-9.53,5.29c-3.53,1.59-6.97,2.38-10.32,2.38c-1.85,0-3.64-0.31-5.36-0.93
			c-1.72-0.62-3.24-1.5-4.57-2.65c-1.32-1.15-2.38-2.51-3.18-4.1c-0.79-1.59-1.19-3.4-1.19-5.43c0-3.62,0.99-6.51,2.98-8.67
			c1.99-2.16,4.61-3.84,7.88-5.03c3.26-1.19,6.95-1.96,11.05-2.32c4.1-0.35,8.23-0.57,12.38-0.66v-10.06c0-3.26-1.02-5.78-3.04-7.54
			c-2.03-1.76-4.59-2.65-7.68-2.65c-2.3,0-4.1,1.15-5.43,3.44c-1.32,2.3-1.99,4.9-1.99,7.81L505.82,828.16z M534.55,844.31
			c-2.91-0.79-5.87-1.19-8.87-1.19c-1.77,0-3.49,0.2-5.16,0.6c-1.68,0.4-3.18,1.04-4.5,1.92c-1.32,0.88-2.38,2.01-3.18,3.38
			c-0.79,1.37-1.19,3.02-1.19,4.96c0,3,1.04,5.14,3.11,6.42c2.07,1.28,4.39,1.92,6.95,1.92c2.82,0,5.4-0.57,7.74-1.72
			c2.34-1.15,4.04-2.12,5.1-2.91V844.31z"/>
		<path class="st0" d="M552.68,822.2v-2.12c2.82-0.09,5.25-0.79,7.28-2.12c2.03-1.32,3.79-3,5.29-5.03c1.5-2.03,2.76-4.28,3.77-6.75
			c1.01-2.47,1.92-4.85,2.71-7.15h1.85v19.19h18.13v3.97h-18.13v30.84c0,1.15,0.04,2.27,0.13,3.38c0.09,1.1,0.33,2.1,0.73,2.98
			c0.4,0.88,0.99,1.59,1.79,2.12c0.79,0.53,1.85,0.79,3.18,0.79c2.65,0,4.85-0.57,6.62-1.72c1.76-1.15,3.53-2.6,5.29-4.37l1.19,1.32
			c-1.5,1.32-2.96,2.67-4.37,4.04c-1.41,1.37-2.89,2.6-4.43,3.71c-1.54,1.1-3.22,1.99-5.03,2.65c-1.81,0.66-3.77,0.99-5.89,0.99
			c-3.71,0-6.22-1.12-7.54-3.38c-1.32-2.25-1.99-4.92-1.99-8.01V822.2H552.68z"/>
		<path class="st0" d="M599.14,833.85c0-2.12-0.07-3.99-0.2-5.62c-0.13-1.63-0.53-3-1.19-4.1c-0.66-1.1-1.65-2.01-2.98-2.71
			c-1.32-0.71-3.13-1.19-5.43-1.46v-1.85l20.12-1.32v38.91c0,2.12,0.18,3.84,0.53,5.16c0.35,1.32,0.95,2.34,1.79,3.04
			c0.84,0.71,1.92,1.17,3.24,1.39c1.32,0.22,2.96,0.38,4.9,0.46v1.59c-3.09-0.18-6.2-0.31-9.33-0.4c-3.13-0.09-6.24-0.13-9.33-0.13
			c-2.03,0-4.02,0.04-5.96,0.13c-1.94,0.09-3.93,0.22-5.96,0.4v-1.59c1.76-0.09,3.26-0.24,4.5-0.46c1.23-0.22,2.25-0.68,3.04-1.39
			c0.79-0.71,1.37-1.72,1.72-3.04c0.35-1.32,0.53-3.04,0.53-5.16V833.85z M602.98,777.86c1.94,0,3.59,0.73,4.96,2.18
			c1.37,1.46,2.05,3.16,2.05,5.1c0,1.94-0.68,3.64-2.05,5.1c-1.37,1.46-3.02,2.18-4.96,2.18c-1.94,0-3.6-0.73-4.96-2.18
			c-1.37-1.46-2.05-3.15-2.05-5.1c0-1.94,0.68-3.64,2.05-5.1C599.38,778.59,601.04,777.86,602.98,777.86z"/>
		<path class="st0" d="M617.94,819.69l19.32-2.91v7.01c2.38-1.85,5.12-3.62,8.21-5.29c3.09-1.68,6.04-2.51,8.87-2.51
			c2.47,0,4.83,0.31,7.08,0.93c2.25,0.62,4.26,1.63,6.02,3.04c1.76,1.41,3.18,3.31,4.24,5.69c1.06,2.38,1.59,5.34,1.59,8.87v23.29
			c0,2.91,0.79,4.83,2.38,5.76c1.59,0.93,3.88,1.66,6.88,2.18v1.59c-2.56-0.18-5.29-0.31-8.21-0.4c-2.91-0.09-5.87-0.13-8.87-0.13
			c-2.03,0-3.99,0.04-5.89,0.13c-1.9,0.09-3.73,0.22-5.49,0.4v-1.59c2.82-0.53,5.01-1.26,6.55-2.18c1.54-0.93,2.32-2.85,2.32-5.76
			V836.5c0-4.5-0.97-7.99-2.91-10.46c-1.94-2.47-4.99-3.71-9.13-3.71c-1.5,0-3.04,0.22-4.63,0.66c-1.59,0.44-3.04,1.04-4.37,1.79
			c-1.32,0.75-2.43,1.57-3.31,2.45c-0.88,0.88-1.32,1.72-1.32,2.51v28.06c0,2.91,0.84,4.83,2.51,5.76c1.68,0.93,4.19,1.66,7.54,2.18
			v1.59c-3-0.18-5.98-0.31-8.93-0.4c-2.96-0.09-5.94-0.13-8.93-0.13c-2.03,0-3.99,0.04-5.89,0.13c-1.9,0.09-3.86,0.22-5.89,0.4
			v-1.59c3-0.53,5.29-1.26,6.88-2.18c1.59-0.93,2.38-2.85,2.38-5.76V827.1c0-2.65-0.91-4.28-2.71-4.9
			c-1.81-0.62-3.91-0.93-6.29-0.93V819.69z"/>
		<path class="st0" d="M697.48,793.61c0-2.47-0.24-4.39-0.73-5.76c-0.49-1.37-1.21-2.45-2.18-3.24c-0.97-0.79-2.16-1.37-3.57-1.72
			c-1.41-0.35-3.04-0.71-4.9-1.06v-1.59c3.71,0.18,7.35,0.31,10.92,0.4c3.57,0.09,7.21,0.13,10.92,0.13c2.65,0,5.27-0.04,7.88-0.13
			c2.6-0.09,5.23-0.22,7.88-0.4v1.59c-2.83,0.26-5.16,0.68-7.01,1.26c-1.85,0.58-3.31,1.46-4.37,2.65s-1.81,2.69-2.25,4.5
			c-0.44,1.81-0.66,4.04-0.66,6.68v43.15c0,4.15,0.68,7.66,2.05,10.52c1.37,2.87,3.24,5.21,5.62,7.01c2.38,1.81,5.14,3.13,8.27,3.97
			c3.13,0.84,6.46,1.26,9.99,1.26c5.65,0,10.28-0.84,13.9-2.51c3.62-1.68,6.49-3.73,8.6-6.16c2.12-2.43,3.57-5.03,4.37-7.81
			c0.79-2.78,1.19-5.23,1.19-7.35v-37.06c0-3.53-0.18-6.51-0.53-8.93c-0.35-2.43-0.99-4.41-1.92-5.96
			c-0.93-1.54-2.21-2.71-3.84-3.51c-1.63-0.79-3.77-1.37-6.42-1.72v-1.59c2.73,0.18,5.45,0.31,8.14,0.4
			c2.69,0.09,5.4,0.13,8.14,0.13c2.29,0,4.54-0.04,6.75-0.13c2.2-0.09,4.45-0.22,6.75-0.4v1.59c-1.85,0.26-3.55,0.62-5.1,1.06
			c-1.54,0.44-2.85,1.24-3.91,2.38c-1.06,1.15-1.88,2.8-2.45,4.96c-0.58,2.16-0.86,5.1-0.86,8.8v39.58c0,5.29-0.95,9.86-2.85,13.7
			c-1.9,3.84-4.48,7.04-7.74,9.6c-3.27,2.56-7.08,4.46-11.45,5.69c-4.37,1.24-9.02,1.85-13.96,1.85c-4.5,0-8.83-0.6-12.97-1.79
			c-4.15-1.19-7.83-3-11.05-5.43c-3.22-2.43-5.8-5.45-7.74-9.07c-1.94-3.62-2.91-7.81-2.91-12.57V793.61z"/>
		<path class="st0" d="M781.14,819.69l19.32-2.91v7.01c2.38-1.85,5.12-3.62,8.21-5.29c3.09-1.68,6.04-2.51,8.87-2.51
			c2.47,0,4.83,0.31,7.08,0.93c2.25,0.62,4.26,1.63,6.02,3.04c1.76,1.41,3.18,3.31,4.24,5.69c1.06,2.38,1.59,5.34,1.59,8.87v23.29
			c0,2.91,0.79,4.83,2.38,5.76c1.59,0.93,3.88,1.66,6.88,2.18v1.59c-2.56-0.18-5.29-0.31-8.21-0.4c-2.91-0.09-5.87-0.13-8.87-0.13
			c-2.03,0-3.99,0.04-5.89,0.13c-1.9,0.09-3.73,0.22-5.49,0.4v-1.59c2.82-0.53,5.01-1.26,6.55-2.18c1.54-0.93,2.32-2.85,2.32-5.76
			V836.5c0-4.5-0.97-7.99-2.91-10.46c-1.94-2.47-4.99-3.71-9.13-3.71c-1.5,0-3.04,0.22-4.63,0.66c-1.59,0.44-3.04,1.04-4.37,1.79
			c-1.32,0.75-2.43,1.57-3.31,2.45c-0.88,0.88-1.32,1.72-1.32,2.51v28.06c0,2.91,0.84,4.83,2.51,5.76c1.68,0.93,4.19,1.66,7.54,2.18
			v1.59c-3-0.18-5.98-0.31-8.93-0.4c-2.96-0.09-5.94-0.13-8.93-0.13c-2.03,0-3.99,0.04-5.89,0.13c-1.9,0.09-3.86,0.22-5.89,0.4
			v-1.59c3-0.53,5.29-1.26,6.88-2.18c1.59-0.93,2.38-2.85,2.38-5.76V827.1c0-2.65-0.91-4.28-2.71-4.9
			c-1.81-0.62-3.91-0.93-6.29-0.93V819.69z"/>
		<path class="st0" d="M854.46,833.85c0-2.12-0.07-3.99-0.2-5.62c-0.13-1.63-0.53-3-1.19-4.1c-0.66-1.1-1.65-2.01-2.98-2.71
			c-1.32-0.71-3.13-1.19-5.43-1.46v-1.85l20.12-1.32v38.91c0,2.12,0.18,3.84,0.53,5.16c0.35,1.32,0.95,2.34,1.79,3.04
			c0.84,0.71,1.92,1.17,3.24,1.39c1.32,0.22,2.96,0.38,4.9,0.46v1.59c-3.09-0.18-6.2-0.31-9.33-0.4c-3.13-0.09-6.24-0.13-9.33-0.13
			c-2.03,0-4.02,0.04-5.96,0.13c-1.94,0.09-3.93,0.22-5.96,0.4v-1.59c1.76-0.09,3.26-0.24,4.5-0.46c1.23-0.22,2.25-0.68,3.04-1.39
			c0.79-0.71,1.37-1.72,1.72-3.04c0.35-1.32,0.53-3.04,0.53-5.16V833.85z M858.3,777.86c1.94,0,3.59,0.73,4.96,2.18
			c1.37,1.46,2.05,3.16,2.05,5.1c0,1.94-0.68,3.64-2.05,5.1c-1.37,1.46-3.02,2.18-4.96,2.18c-1.94,0-3.6-0.73-4.96-2.18
			c-1.37-1.46-2.05-3.15-2.05-5.1c0-1.94,0.68-3.64,2.05-5.1C854.71,778.59,856.36,777.86,858.3,777.86z"/>
		<path class="st0" d="M903.04,815.98c4.24,0,8.09,0.64,11.58,1.92c3.49,1.28,6.49,3.07,9,5.36c2.51,2.3,4.45,5.08,5.82,8.34
			c1.37,3.27,2.05,6.88,2.05,10.85s-0.68,7.59-2.05,10.85c-1.37,3.27-3.31,6.04-5.82,8.34c-2.52,2.3-5.52,4.08-9,5.36
			c-3.49,1.28-7.35,1.92-11.58,1.92c-4.24,0-8.1-0.64-11.58-1.92c-3.49-1.28-6.49-3.06-9-5.36c-2.51-2.29-4.46-5.07-5.82-8.34
			c-1.37-3.26-2.05-6.88-2.05-10.85s0.68-7.59,2.05-10.85c1.37-3.26,3.31-6.04,5.82-8.34c2.52-2.29,5.51-4.08,9-5.36
			C894.94,816.62,898.8,815.98,903.04,815.98z M900.66,819.95c-2.47,0-4.61,0.62-6.42,1.85c-1.81,1.24-3.31,2.85-4.5,4.83
			s-2.07,4.24-2.65,6.75c-0.58,2.51-0.86,5.01-0.86,7.48c0,2.82,0.38,5.65,1.12,8.47c0.75,2.83,1.92,5.41,3.51,7.74
			c1.59,2.34,3.59,4.24,6.02,5.69c2.43,1.46,5.27,2.18,8.54,2.18c2.47,0,4.61-0.62,6.42-1.85c1.81-1.23,3.31-2.85,4.5-4.83
			s2.07-4.21,2.65-6.68c0.57-2.47,0.86-4.98,0.86-7.54c0-2.73-0.4-5.54-1.19-8.41c-0.79-2.87-1.99-5.47-3.57-7.81
			c-1.59-2.34-3.57-4.24-5.96-5.69C906.75,820.68,903.92,819.95,900.66,819.95z"/>
		<path class="st0" d="M932.82,819.69l19.32-2.91v7.01c2.38-1.85,5.12-3.62,8.21-5.29c3.09-1.68,6.04-2.51,8.87-2.51
			c2.47,0,4.83,0.31,7.08,0.93c2.25,0.62,4.26,1.63,6.02,3.04c1.76,1.41,3.18,3.31,4.24,5.69c1.06,2.38,1.59,5.34,1.59,8.87v23.29
			c0,2.91,0.79,4.83,2.38,5.76c1.59,0.93,3.88,1.66,6.88,2.18v1.59c-2.56-0.18-5.29-0.31-8.21-0.4c-2.91-0.09-5.87-0.13-8.87-0.13
			c-2.03,0-3.99,0.04-5.89,0.13c-1.9,0.09-3.73,0.22-5.49,0.4v-1.59c2.82-0.53,5.01-1.26,6.55-2.18c1.54-0.93,2.32-2.85,2.32-5.76
			V836.5c0-4.5-0.97-7.99-2.91-10.46c-1.94-2.47-4.99-3.71-9.13-3.71c-1.5,0-3.04,0.22-4.63,0.66c-1.59,0.44-3.04,1.04-4.37,1.79
			c-1.32,0.75-2.43,1.57-3.31,2.45c-0.88,0.88-1.32,1.72-1.32,2.51v28.06c0,2.91,0.84,4.83,2.51,5.76c1.68,0.93,4.19,1.66,7.54,2.18
			v1.59c-3-0.18-5.98-0.31-8.93-0.4c-2.96-0.09-5.94-0.13-8.93-0.13c-2.03,0-3.99,0.04-5.89,0.13c-1.9,0.09-3.86,0.22-5.89,0.4
			v-1.59c3-0.53,5.29-1.26,6.88-2.18c1.59-0.93,2.38-2.85,2.38-5.76V827.1c0-2.65-0.91-4.28-2.71-4.9
			c-1.81-0.62-3.91-0.93-6.29-0.93V819.69z"/>
	</g>
	<g>
		<g>
			<path class="st0" d="M37.65,751.73c8.62,0,17.23,0,25.85,0c23.24,0,46.47,0,69.71,0c34.45,0,68.9,0,103.35,0
				c42.03,0,84.06,0,126.09,0c45.87,0,91.75,0,137.62,0c46.62,0,93.24,0,139.86,0c43.17,0,86.35,0,129.52,0
				c36.61,0,73.23,0,109.84,0c26.32,0,52.65,0,78.97,0c12.44,0,24.89,0.21,37.33,0c0.54-0.01,1.09,0,1.63,0c3.22,0,3.22-5,0-5
				c-8.62,0-17.23,0-25.85,0c-23.24,0-46.47,0-69.71,0c-34.45,0-68.9,0-103.35,0c-42.03,0-84.06,0-126.09,0
				c-45.87,0-91.75,0-137.62,0c-46.62,0-93.24,0-139.86,0c-43.17,0-86.35,0-129.52,0c-36.61,0-73.23,0-109.84,0
				c-26.32,0-52.65,0-78.97,0c-12.44,0-24.89-0.21-37.33,0c-0.54,0.01-1.09,0-1.63,0C34.43,746.73,34.43,751.73,37.65,751.73
				L37.65,751.73z"/>
		</g>
	</g>
</g>
</svg>
