<?xml version="1.0" encoding="utf-8"?>
<!-- Generator: Adobe Illustrator 28.2.0, SVG Export Plug-In . SVG Version: 6.00 Build 0)  -->
<svg version="1.1" id="Capa_1" xmlns="http://www.w3.org/2000/svg" xmlns:xlink="http://www.w3.org/1999/xlink" x="0px" y="0px"
	 viewBox="0 0 250 250" style="enable-background:new 0 0 250 250;" xml:space="preserve">
<style type="text/css">
	.st0{fill:#334022;}
	.st1{clip-path:url(#SVGID_00000005261260454928731090000015374494018225385141_);}
	.st2{fill:#FDE8D6;}
	.st3{fill:#FDE8D6;stroke:#334022;stroke-width:7.2346;stroke-miterlimit:10;}
</style>
<g>
	<circle class="st0" cx="125.18" cy="125" r="122.5"/>
	<g>
		<defs>
			<circle id="SVGID_1_" cx="125.18" cy="125" r="122.5"/>
		</defs>
		<clipPath id="SVGID_00000098220980054739657390000004117550601371867033_">
			<use xlink:href="#SVGID_1_"  style="overflow:visible;"/>
		</clipPath>
		<g style="clip-path:url(#SVGID_00000098220980054739657390000004117550601371867033_);">
			<g>
				<path class="st2" d="M73.82,201.2c1.79,0.99,3.72,1.79,5.33,3.01c3.85,2.93,8.05,4.67,12.93,4.66
					c19.44-0.01,38.88,0.04,58.32-0.03c11.49-0.05,20.21-8.9,20.3-20.61c0.1-12.06-0.37-24.13,0.13-36.17
					c0.47-11.42-0.83-22.22-5.96-32.61c-2.49-5.03-3.92-10.59-5.7-15.95c-1.24-3.74-1.21-7.56-0.23-11.39
					c1.44-5.57,5.3-8.6,10.71-10.47c1.98,4.63,3.99,9.09,5.81,13.64c7.04,17.64,14.08,35.29,20.98,52.99
					c1.42,3.65,2.25,7.53,3.36,11.3c2.61,8.85,2.34,17.59,0.41,26.67c-4.47,21.06-6.63,42.42-6.24,63.98
					c0.11,6.06,0.31,12.12,0.46,18.19c0.03,1.05,0,2.1,0,3.33c-27.63,0-55.06,0-82.68,0c-1.14-7.12-2.23-14.22-3.47-21.3
					c-0.22-1.27-0.85-2.64-1.7-3.61c-11.74-13.3-22.86-27.06-31.92-42.37c-0.49-0.83-0.94-1.69-1.41-2.54
					C73.44,201.69,73.63,201.44,73.82,201.2z"/>
				<path class="st2" d="M156.2,81.42c0-11.58,0-22.78,0-34.21c-1.15-0.05-2.02-0.13-2.9-0.13c-21.16,0-42.33,0.01-63.49,0.02
					c-3.43,0-3.48,0.02-3.48,3.45c-0.01,22.97,0,45.93,0,68.9c0,0.79-0.07,1.57-0.14,2.97c-2.52-2.8-4.68-5.11-6.71-7.53
					c-0.4-0.48-0.38-1.39-0.38-2.1c-0.02-24.03,0.09-48.07-0.09-72.1c-0.06-8.45,6.13-14.38,14.3-14.22
					c18.78,0.35,37.57,0.11,56.35,0.1c8.28-0.01,13.67,5.1,13.74,13.35c0.11,11.56,0.06,23.13-0.03,34.7
					c-0.01,0.85-0.68,1.92-1.36,2.5C160.33,78.56,158.47,79.77,156.2,81.42z M121.41,37.12c-2.94,0-5.89-0.14-8.82,0.08
					c-0.95,0.07-1.82,1.1-2.72,1.69c0.84,0.61,1.66,1.71,2.52,1.73c5.96,0.14,11.93,0.13,17.89-0.04c0.8-0.02,1.56-1.21,2.34-1.86
					c-0.79-0.54-1.56-1.48-2.39-1.53C127.3,37,124.35,37.12,121.41,37.12z"/>
				<path class="st2" d="M87.85,175.81c1.42-3.01,3.47-3.42,6.08-3.41c19.84,0.1,39.69,0.05,59.53,0.05c0.8,0,1.6-0.07,2.66-0.12
					c0-17.91,0-35.65,0-53.4c0.16-0.05,0.31-0.1,0.47-0.14c0.27,0.5,0.58,0.99,0.79,1.52c0.66,1.68,1.13,3.45,1.95,5.04
					c3.63,6.96,4.42,14.32,4.21,22.09c-0.35,12.86-0.07,25.74-0.1,38.62c0,1.8,0.02,3.64-0.35,5.38
					c-1.34,6.23-6.28,10.17-12.99,10.2c-19.19,0.08-38.37,0.06-57.56,0.02c-1.8,0-3.6-0.49-6.07-0.84c5.2-3.18,6.72-7.39,6.73-12.44
					C93.22,183.32,91.24,179.17,87.85,175.81z M121.16,195.6c4.62,0.01,8.26-3.57,8.3-8.18c0.04-4.4-3.63-8.12-8.06-8.2
					c-4.92-0.08-8.93,3.57-8.86,8.06C112.63,192.25,116.09,195.58,121.16,195.6z"/>
				<path class="st2" d="M63.11,113.11c3.18,0.06,5.94,1.17,8.1,3.51c3.61,3.91,7.19,7.84,10.69,11.84
					c2.51,2.87,4.03,6.19,3.38,10.13c-0.64,3.92-3.33,6.17-7.32,6.21c-3.34,0.03-6.26-1.18-8.73-3.36c-4.04-3.58-8.06-7.19-12-10.88
					c-3.38-3.17-4.39-7.7-2.79-11.67C55.84,115.43,59.26,113.15,63.11,113.11z"/>
				<path class="st2" d="M77.86,171.8c-2.52-1.23-5.33-2.09-7.49-3.77c-3.99-3.11-7.69-6.63-11.36-10.14
					c-4.04-3.86-4.54-9.79-1.39-13.56c1.27-1.52,2.31-1.96,3.91-0.25c4.47,4.76,9.78,7.91,16.54,8.03c0.38,0.01,0.86,0.12,1.12,0.37
					c3.15,3.06,6.05,6.27,6.36,10.98c0.32,4.78-2.54,7.76-7.39,7.72C78.06,171.39,77.96,171.6,77.86,171.8z"/>
				<path class="st2" d="M59.74,168.36c1.72,1.54,2.89,2.54,4.02,3.6c4.37,4.12,9.5,6.51,15.52,7.02c0.75,0.06,1.63,0.43,2.14,0.96
					c3.08,3.18,4.7,6.97,3.47,11.38c-0.64,2.29-2.76,3.29-5.08,3.48c-4.05,0.33-7.26-1.77-10.17-4.1c-2.98-2.39-5.69-5.16-8.33-7.94
					c-2.32-2.44-4.53-5.14-3.8-8.84C57.85,172.12,58.87,170.45,59.74,168.36z"/>
				<path class="st2" d="M92.23,102.12c-1.11-0.78-2.36-1.21-2.5-1.87c-0.24-1.14-0.18-2.68,0.42-3.61
					c3.44-5.29,7.09-10.44,10.67-15.64c6.46-9.38,12.89-18.79,19.45-28.1c0.69-0.98,2.17-1.93,3.3-1.94
					c2.29-0.03,3.05,2.58,1.5,4.86c-4.37,6.44-8.79,12.85-13.2,19.27c-5.57,8.1-11.13,16.22-16.76,24.28
					C94.4,100.35,93.33,101.08,92.23,102.12z"/>
				<path class="st2" d="M71.79,107.01c-4.33-2.06-8.36-3.69-12.09-5.83c-4.85-2.79-6.9-8.21-5.1-12.27
					c1.8-4.06,7.17-6.13,12.49-4.8c4.65,1.16,4.67,1.16,4.7,5.91C71.81,95.49,71.79,100.98,71.79,107.01z"/>
				<path class="st2" d="M92.98,80.09c-1.06-0.8-2.24-1.23-2.44-1.94c-0.28-1.04-0.22-2.51,0.34-3.39c2.45-3.87,5.13-7.6,7.73-11.37
					c2.46-3.58,4.93-7.14,7.37-10.74c1.1-1.62,2.44-2.49,4.33-1.4c1.6,0.93,1.72,2.68,0.35,4.7c-4.95,7.23-9.9,14.46-14.91,21.64
					C95.1,78.52,94.04,79.15,92.98,80.09z"/>
			</g>
			<g>
				<path class="st2" d="M98.19,187.41l14.35,8.19c0,0,13.56,11.11,29.17,0s15.14-18.89,15.14-18.89l-0.26-57.93
					c0,0-7.61-19.79-0.38-37.35s0.65-42.52,0.65-42.52l-53.45-8.15l-18.1,9.97v74.92h24.57L98.19,187.41z"/>
				<path class="st2" d="M86.19,122.43c0,0,9.11,8.94,2.09,20.55c0,0-1.57,2.88-5.89,6c0,0,8.51,2.86,8.55,18.36
					c0,0-1.31,5.97-3.08,8.46c-1.76,2.49,22.82,2.15,22.82,2.15l12.8-72.92l-37.15-2.92L86.19,122.43z"/>
			</g>
		</g>
	</g>
	<polygon class="st3" points="79.82,22.98 105.12,15.57 97.71,40.87 105.12,66.18 79.82,58.77 54.51,66.18 61.92,40.87 54.51,15.57 
			"/>
</g>
</svg>
