<?xml version="1.0" encoding="utf-8"?>
<!-- Generator: Adobe Illustrator 28.2.0, SVG Export Plug-In . SVG Version: 6.00 Build 0)  -->
<svg version="1.1" id="Capa_1" xmlns="http://www.w3.org/2000/svg" xmlns:xlink="http://www.w3.org/1999/xlink" x="0px" y="0px"
	 viewBox="0 0 250 250" style="enable-background:new 0 0 250 250;" xml:space="preserve">
<style type="text/css">
	.st0{fill:#334022;}
	.st1{fill:#FDE8D6;}
</style>
<g>
	<circle class="st0" cx="125" cy="125" r="122.5"/>
	<g>
		<path class="st1" d="M124.03,89.58c2.59,6.49,6.15,12.2,10.88,17.1c4.73,4.9,10.24,8.6,16.59,11.31c-1.64,1.41-3.14,2.7-4.65,3.99
			c-21.46,18.27-42.94,36.52-64.35,54.85c-2.78,2.38-5.66,4.17-9.31,3.48c-1.79-0.34-2.86,0.28-3.79,1.54
			c-1.46,1.98-3.07,3.9-4.17,6.09c-1.63,3.24-0.16,6.06,3.28,6.92c5.54,1.37,10.8,0.56,15.84-2.12c3.98-2.11,7.44-4.98,10.86-7.91
			c5.44-4.65,10.76-9.47,16.38-13.86c5.5-4.29,11.72-7.17,18.64-8.15c7.81-1.11,15.36,0.16,22.7,2.92
			c10.62,3.99,19.65,10.58,27.59,18.75c3.56,3.67,6.86,7.65,10,11.72c2.77,3.59,0.61,8.72-3.74,9.33c-2.28,0.32-4.05-0.64-5.44-2.53
			c-5.49-7.46-11.89-13.96-19.36-19.28c-6.48-4.62-13.48-7.95-21.35-9.2c-7.46-1.19-14.37,0.28-20.52,4.67
			c-4.63,3.31-8.98,7.06-13.31,10.81c-5.14,4.45-10.13,9.06-16.03,12.46c-8.19,4.73-16.79,6.11-25.91,3.51
			c-8.61-2.45-13.51-11.55-10.91-20.39c1.61-5.48,4.94-9.79,8.99-13.55c0.62-0.58,0.92-1.1,0.84-2c-0.3-3.46,1.06-6.23,3.19-8.86
			c8.64-10.7,17.16-21.49,25.72-32.26c10.15-12.76,20.3-25.52,30.45-38.28C123.39,90.33,123.66,90.03,124.03,89.58z"/>
		<path class="st1" d="M159.85,42.72c11.67,0.55,22.18,6.71,29.92,17.93c5.11,7.4,7.53,15.73,6.88,24.88
			c-0.33,4.61-1.64,8.91-3.89,12.91c-0.36,0.63-0.73,0.83-1.45,0.7c-24.76-4.64-44.45-24.98-49.05-50.67
			c-0.14-0.78,0.04-1.19,0.7-1.61C147.18,44.24,152.61,42.73,159.85,42.72z"/>
		<path class="st1" d="M184.87,107.11c-3.89,2.74-8.04,4.46-12.56,4.85c-16.34,1.39-28.51-5.95-37.12-19.86
			c-5.3-8.57-7.08-18.06-4.56-28.07c0.69-2.74,2.12-5.29,3.23-7.91c0.15-0.36,0.43-0.67,0.69-1.06
			C142.17,81.9,158.88,99.18,184.87,107.11z"/>
	</g>
</g>
</svg>
